# Blender v2.93.4 OBJ File: ''
# www.blender.org
mtllib bucket-dark.mtl
o can_Circle
v 0.000000 0.000000 -1.000000
v -0.195090 0.000000 -0.980785
v -0.382683 0.000000 -0.923880
v -0.555570 0.000000 -0.831470
v -0.707107 0.000000 -0.707107
v -0.831470 0.000000 -0.555570
v -0.923880 0.000000 -0.382683
v -0.980785 0.000000 -0.195090
v -1.000000 0.000000 0.000000
v -0.980785 0.000000 0.195090
v -0.923880 0.000000 0.382683
v -0.831470 0.000000 0.555570
v -0.707107 0.000000 0.707107
v -0.555570 0.000000 0.831470
v -0.382683 0.000000 0.923880
v -0.195090 0.000000 0.980785
v 0.000000 0.000000 1.000000
v 0.195090 0.000000 0.980785
v 0.382683 0.000000 0.923880
v 0.555570 0.000000 0.831470
v 0.707107 0.000000 0.707107
v 0.831469 0.000000 0.555570
v 0.923880 0.000000 0.382684
v 0.980785 0.000000 0.195090
v 1.000000 0.000000 -0.000000
v 0.980785 0.000000 -0.195090
v 0.923879 0.000000 -0.382684
v 0.831470 0.000000 -0.555570
v 0.707107 0.000000 -0.707107
v 0.555570 0.000000 -0.831470
v 0.382683 0.000000 -0.923880
v 0.195090 0.000000 -0.980785
v -0.000000 0.100000 -0.900000
v -0.175581 0.100000 -0.882707
v -0.344415 0.100000 -0.831492
v -0.500013 0.100000 -0.748323
v -0.636396 0.100000 -0.636396
v -0.748323 0.100000 -0.500013
v -0.831492 0.100000 -0.344415
v -0.882707 0.100000 -0.175581
v -0.900000 0.100000 0.000000
v -0.882707 0.100000 0.175581
v -0.831492 0.100000 0.344415
v -0.748323 0.100000 0.500013
v -0.636396 0.100000 0.636396
v -0.500013 0.100000 0.748323
v -0.344415 0.100000 0.831492
v -0.175581 0.100000 0.882707
v 0.000000 0.100000 0.900000
v 0.175581 0.100000 0.882707
v 0.344415 0.100000 0.831492
v 0.500013 0.100000 0.748323
v 0.636396 0.100000 0.636396
v 0.748322 0.100000 0.500013
v 0.831492 0.100000 0.344415
v 0.882707 0.100000 0.175581
v 0.900000 0.100000 -0.000000
v 0.882707 0.100000 -0.175581
v 0.831491 0.100000 -0.344415
v 0.748323 0.100000 -0.500013
v 0.636396 0.100000 -0.636396
v 0.500013 0.100000 -0.748323
v 0.344415 0.100000 -0.831492
v 0.175581 0.100000 -0.882707
v -0.195090 1.900000 -0.980785
v 0.000000 1.900000 -1.000000
v -0.382683 1.900000 -0.923880
v -0.555570 1.900000 -0.831470
v -0.707107 1.900000 -0.707107
v -0.831470 1.900000 -0.555570
v -0.923880 1.900000 -0.382683
v -0.980785 1.900000 -0.195090
v -1.000000 1.900000 0.000000
v -0.980785 1.900000 0.195090
v -0.923880 1.900000 0.382683
v -0.831470 1.900000 0.555570
v -0.707107 1.900000 0.707107
v -0.555570 1.900000 0.831470
v -0.382683 1.900000 0.923880
v -0.195090 1.900000 0.980785
v 0.000000 1.900000 1.000000
v 0.195090 1.900000 0.980785
v 0.382683 1.900000 0.923880
v 0.555570 1.900000 0.831470
v 0.707107 1.900000 0.707107
v 0.831469 1.900000 0.555570
v 0.923880 1.900000 0.382684
v 0.980785 1.900000 0.195090
v 1.000000 1.900000 -0.000000
v 0.980785 1.900000 -0.195090
v 0.923879 1.900000 -0.382684
v 0.831470 1.900000 -0.555570
v 0.707107 1.900000 -0.707107
v 0.555570 1.900000 -0.831470
v 0.382683 1.900000 -0.923880
v 0.195090 1.900000 -0.980785
v -0.175581 1.900000 -0.882707
v -0.000000 1.900000 -0.900000
v -0.344415 1.900000 -0.831492
v -0.500013 1.900000 -0.748323
v -0.636396 1.900000 -0.636396
v -0.748323 1.900000 -0.500013
v -0.831492 1.900000 -0.344415
v -0.882707 1.900000 -0.175581
v -0.900000 1.900000 0.000000
v -0.882707 1.900000 0.175581
v -0.831492 1.900000 0.344415
v -0.748323 1.900000 0.500013
v -0.636396 1.900000 0.636396
v -0.500013 1.900000 0.748323
v -0.344415 1.900000 0.831492
v -0.175581 1.900000 0.882707
v 0.000000 1.900000 0.900000
v 0.175581 1.900000 0.882707
v 0.344415 1.900000 0.831492
v 0.500013 1.900000 0.748323
v 0.636396 1.900000 0.636396
v 0.748322 1.900000 0.500013
v 0.831492 1.900000 0.344415
v 0.882707 1.900000 0.175581
v 0.900000 1.900000 -0.000000
v 0.882707 1.900000 -0.175581
v 0.831491 1.900000 -0.344415
v 0.748323 1.900000 -0.500013
v 0.636396 1.900000 -0.636396
v 0.500013 1.900000 -0.748323
v 0.344415 1.900000 -0.831492
v 0.175581 1.900000 -0.882707
vt 0.000000 0.000000
vt 0.000000 0.000000
vt 0.000000 0.000000
vt 0.000000 0.000000
vt 0.000000 0.000000
vt 0.000000 0.000000
vt 0.000000 0.000000
vt 0.000000 0.000000
vt 0.000000 0.000000
vt 0.000000 0.000000
vt 0.000000 0.000000
vt 0.000000 0.000000
vt 0.000000 0.000000
vt 0.000000 0.000000
vt 0.000000 0.000000
vt 0.000000 0.000000
vt 0.000000 0.000000
vt 0.000000 0.000000
vt 0.000000 0.000000
vt 0.000000 0.000000
vt 0.000000 0.000000
vt 0.000000 0.000000
vt 0.000000 0.000000
vt 0.000000 0.000000
vt 0.000000 0.000000
vt 0.000000 0.000000
vt 0.000000 0.000000
vt 0.000000 0.000000
vt 0.000000 0.000000
vt 0.000000 0.000000
vt 0.000000 0.000000
vt 0.000000 0.000000
vt 0.000000 0.000000
vt 0.000000 0.000000
vt 0.000000 0.000000
vt 0.000000 0.000000
vt 0.000000 0.000000
vt 0.000000 0.000000
vt 0.000000 0.000000
vt 0.000000 0.000000
vt 0.000000 0.000000
vt 0.000000 0.000000
vt 0.000000 0.000000
vt 0.000000 0.000000
vt 0.000000 0.000000
vt 0.000000 0.000000
vt 0.000000 0.000000
vt 0.000000 0.000000
vt 0.000000 0.000000
vt 0.000000 0.000000
vt 0.000000 0.000000
vt 0.000000 0.000000
vt 0.000000 0.000000
vt 0.000000 0.000000
vt 0.000000 0.000000
vt 0.000000 0.000000
vt 0.000000 0.000000
vt 0.000000 0.000000
vt 0.000000 0.000000
vt 0.000000 0.000000
vt 0.000000 0.000000
vt 0.000000 0.000000
vt 0.000000 0.000000
vt 0.000000 0.000000
vt 0.000000 0.000000
vt 0.000000 0.000000
vt 0.000000 0.000000
vt 0.000000 0.000000
vt 0.000000 0.000000
vt 0.000000 0.000000
vt 0.000000 0.000000
vt 0.000000 0.000000
vt 0.000000 0.000000
vt 0.000000 0.000000
vt 0.000000 0.000000
vt 0.000000 0.000000
vt 0.000000 0.000000
vt 0.000000 0.000000
vt 0.000000 0.000000
vt 0.000000 0.000000
vt 0.000000 0.000000
vt 0.000000 0.000000
vt 0.000000 0.000000
vt 0.000000 0.000000
vt 0.000000 0.000000
vt 0.000000 0.000000
vt 0.000000 0.000000
vt 0.000000 0.000000
vt 0.000000 0.000000
vt 0.000000 0.000000
vt 0.000000 0.000000
vt 0.000000 0.000000
vt 0.000000 0.000000
vt 0.000000 0.000000
vt 0.000000 0.000000
vt 0.000000 0.000000
vt 0.000000 0.000000
vt 0.000000 0.000000
vt 0.000000 0.000000
vt 0.000000 0.000000
vt 0.000000 0.000000
vt 0.000000 0.000000
vt 0.000000 0.000000
vt 0.000000 0.000000
vt 0.000000 0.000000
vt 0.000000 0.000000
vt 0.000000 0.000000
vt 0.000000 0.000000
vt 0.000000 0.000000
vt 0.000000 0.000000
vt 0.000000 0.000000
vt 0.000000 0.000000
vt 0.000000 0.000000
vt 0.000000 0.000000
vt 0.000000 0.000000
vt 0.000000 0.000000
vt 0.000000 0.000000
vt 0.000000 0.000000
vt 0.000000 0.000000
vt 0.000000 0.000000
vt 0.000000 0.000000
vt 0.000000 0.000000
vt 0.000000 0.000000
vt 0.000000 0.000000
vt 0.000000 0.000000
vt 0.000000 0.000000
vt 0.000000 0.000000
vt 0.000000 0.000000
vn 0.0000 -1.0000 0.0000
vn 0.0000 1.0000 0.0000
vn 0.5147 0.6857 0.5147
vn 0.4044 -0.6857 0.6052
vn 0.5147 -0.6857 0.5147
vn -0.4834 0.7298 -0.4834
vn -0.6052 0.6857 -0.4044
vn -0.5147 0.6857 -0.5147
vn -0.5684 0.7298 -0.3798
vn -0.6725 0.6857 -0.2785
vn -0.6705 0.7298 0.1333
vn -0.6725 0.6857 0.2785
vn -0.7139 0.6857 0.1420
vn 0.2616 0.7298 0.6316
vn 0.4044 0.6857 0.6052
vn 0.2785 0.6857 0.6725
vn -0.2616 0.7298 0.6316
vn -0.1420 0.6857 0.7139
vn -0.2785 0.6857 0.6725
vn 0.5147 0.6857 -0.5147
vn 0.6052 -0.6857 -0.4044
vn 0.5147 -0.6857 -0.5147
vn -0.7279 -0.6857 0.0000
vn -0.7139 -0.6857 0.1420
vn -0.2785 -0.6857 0.6725
vn -0.1420 -0.6857 0.7139
vn 0.7139 0.6857 -0.1420
vn 0.7279 -0.6857 0.0000
vn 0.7139 -0.6857 -0.1420
vn 0.1420 -0.6857 0.7139
vn 0.2785 -0.6857 0.6725
vn -0.6836 0.7298 0.0000
vn -0.7279 0.6857 0.0000
vn -0.7139 -0.6857 -0.1420
vn -0.6725 -0.6857 0.2785
vn 0.6725 0.6857 -0.2785
vn 0.6725 -0.6857 -0.2785
vn -0.4044 -0.6857 -0.6052
vn -0.5147 -0.6857 -0.5147
vn -0.2785 0.6857 -0.6725
vn -0.1420 -0.6857 -0.7139
vn -0.2785 -0.6857 -0.6725
vn 0.3798 0.7298 0.5684
vn -0.6052 -0.6857 -0.4044
vn 0.0000 0.6857 -0.7279
vn 0.1420 -0.6857 -0.7139
vn 0.0000 -0.6857 -0.7279
vn 0.1420 0.6857 0.7139
vn 0.6052 0.6857 0.4044
vn -0.5147 0.6857 0.5147
vn -0.6052 -0.6857 0.4044
vn -0.5147 -0.6857 0.5147
vn -0.6316 0.7298 -0.2616
vn -0.7139 0.6857 -0.1420
vn -0.6052 0.6857 0.4044
vn -0.6705 0.7298 -0.1333
vn 0.6705 0.7298 0.1333
vn 0.7279 0.6857 0.0000
vn 0.7139 0.6857 0.1420
vn -0.5684 0.7298 0.3798
vn 0.1333 0.7298 -0.6705
vn 0.1420 0.6857 -0.7139
vn -0.6725 -0.6857 -0.2785
vn -0.1333 0.7298 -0.6705
vn -0.1420 0.6857 -0.7139
vn -0.2616 0.7298 -0.6316
vn -0.4044 0.6857 -0.6052
vn -0.3798 0.7298 -0.5684
vn 0.4044 0.6857 -0.6052
vn 0.4044 -0.6857 -0.6052
vn 0.3798 0.7298 -0.5684
vn 0.2785 0.6857 -0.6725
vn -0.1333 0.7298 0.6705
vn 0.0000 0.6857 0.7279
vn -0.4044 0.6857 0.6052
vn -0.4044 -0.6857 0.6052
vn -0.3798 0.7298 0.5684
vn 0.2616 0.7298 -0.6316
vn 0.1333 0.7298 0.6705
vn 0.2785 -0.6857 -0.6725
vn 0.6725 0.6857 0.2785
vn 0.6052 -0.6857 0.4044
vn 0.6725 -0.6857 0.2785
vn 0.0000 -0.6857 0.7279
vn 0.0000 0.7298 0.6836
vn 0.6052 0.6857 -0.4044
vn 0.4834 0.7298 -0.4834
vn 0.5684 0.7298 0.3798
vn 0.6316 0.7298 0.2616
vn 0.5684 0.7298 -0.3798
vn 0.6316 0.7298 -0.2616
vn 0.6705 0.7298 -0.1333
vn 0.6836 0.7298 0.0000
vn 0.7139 -0.6857 0.1420
vn 0.4834 0.7298 0.4834
vn 0.0000 0.7298 -0.6836
vn -0.6316 0.7298 0.2616
vn -0.4834 0.7298 0.4834
usemtl None
s off
f 24/1/1 16/2/1 8/3/1
f 88/4/2 120/5/2 119/6/2
f 8/3/1 7/7/1 6/8/1
f 6/8/1 5/9/1 8/3/1
f 5/9/1 4/10/1 8/3/1
f 4/10/1 3/11/1 32/12/1
f 3/11/1 2/13/1 32/12/1
f 2/13/1 1/14/1 32/12/1
f 32/12/1 31/15/1 28/16/1
f 31/15/1 30/17/1 28/16/1
f 30/17/1 29/18/1 28/16/1
f 28/16/1 27/19/1 26/20/1
f 26/20/1 25/21/1 24/1/1
f 24/1/1 23/22/1 22/23/1
f 22/23/1 21/24/1 20/25/1
f 20/25/1 19/26/1 18/27/1
f 18/27/1 17/28/1 16/2/1
f 16/2/1 15/29/1 14/30/1
f 14/30/1 13/31/1 16/2/1
f 13/31/1 12/32/1 16/2/1
f 12/32/1 11/33/1 10/34/1
f 10/34/1 9/35/1 8/3/1
f 28/16/1 26/20/1 24/1/1
f 24/1/1 22/23/1 20/25/1
f 20/25/1 18/27/1 24/1/1
f 18/27/1 16/2/1 24/1/1
f 12/32/1 10/34/1 8/3/1
f 8/3/1 4/10/1 24/1/1
f 4/10/1 32/12/1 24/1/1
f 32/12/1 28/16/1 24/1/1
f 16/2/1 12/32/1 8/3/1
f 65/36/2 67/37/2 99/38/2
f 67/37/2 68/39/2 100/40/2
f 68/39/2 69/41/2 100/40/2
f 69/41/2 70/42/2 101/43/2
f 100/40/2 69/41/2 101/43/2
f 70/42/2 102/44/2 101/43/2
f 67/37/2 100/40/2 99/38/2
f 96/45/2 66/46/2 98/47/2
f 66/46/2 65/36/2 98/47/2
f 94/48/2 95/49/2 126/50/2
f 95/49/2 96/45/2 127/51/2
f 126/50/2 95/49/2 127/51/2
f 92/52/2 93/53/2 125/54/2
f 93/53/2 94/48/2 126/50/2
f 90/55/2 91/56/2 122/57/2
f 91/56/2 92/52/2 123/58/2
f 122/57/2 91/56/2 123/58/2
f 88/4/2 89/59/2 121/60/2
f 89/59/2 90/55/2 122/57/2
f 86/61/2 87/62/2 118/63/2
f 87/62/2 88/4/2 119/6/2
f 118/63/2 87/62/2 119/6/2
f 84/64/2 85/65/2 117/66/2
f 85/65/2 86/61/2 118/63/2
f 82/67/2 83/68/2 114/69/2
f 83/68/2 84/64/2 115/70/2
f 114/69/2 83/68/2 115/70/2
f 80/71/2 81/72/2 113/73/2
f 81/72/2 82/67/2 114/69/2
f 78/74/2 79/75/2 110/76/2
f 79/75/2 80/71/2 111/77/2
f 110/76/2 79/75/2 111/77/2
f 76/78/2 77/79/2 109/80/2
f 77/79/2 78/74/2 110/76/2
f 74/81/2 75/82/2 106/83/2
f 75/82/2 76/78/2 107/84/2
f 106/83/2 75/82/2 107/84/2
f 72/85/2 73/86/2 105/87/2
f 73/86/2 74/81/2 106/83/2
f 103/88/2 71/89/2 72/85/2
f 104/90/2 103/88/2 72/85/2
f 73/86/2 106/83/2 105/87/2
f 77/79/2 110/76/2 109/80/2
f 81/72/2 114/69/2 113/73/2
f 85/65/2 118/63/2 117/66/2
f 89/59/2 122/57/2 121/60/2
f 93/53/2 126/50/2 125/54/2
f 105/87/2 104/90/2 72/85/2
f 65/36/2 99/38/2 97/91/2
f 65/36/2 97/91/2 98/47/2
f 96/45/2 98/47/2 128/92/2
f 108/93/2 107/84/2 76/78/2
f 109/80/2 108/93/2 76/78/2
f 96/45/2 128/92/2 127/51/2
f 112/94/2 111/77/2 80/71/2
f 92/52/2 125/54/2 124/95/2
f 92/52/2 124/95/2 123/58/2
f 113/73/2 112/94/2 80/71/2
f 88/4/2 121/60/2 120/5/2
f 116/96/2 115/70/2 84/64/2
f 117/66/2 116/96/2 84/64/2
s 1
f 85/65/3 20/25/4 21/24/5
f 117/66/6 54/97/7 53/98/8
f 118/63/9 55/99/10 54/97/7
f 122/57/11 59/100/12 58/101/13
f 99/38/14 36/102/15 35/103/16
f 127/51/17 64/104/18 63/105/19
f 93/53/20 28/16/21 29/18/22
f 74/81/13 9/35/23 10/34/24
f 80/71/18 15/29/25 16/2/26
f 90/55/27 25/21/28 26/20/29
f 83/68/16 18/27/30 19/26/31
f 121/60/32 58/101/13 57/106/33
f 73/86/33 8/3/34 9/35/23
f 75/82/12 10/34/24 11/33/35
f 91/56/36 26/20/29 27/19/37
f 69/41/8 4/10/38 5/9/39
f 67/37/40 2/13/41 3/11/42
f 100/40/43 37/107/3 36/102/15
f 70/42/7 5/9/39 6/8/44
f 66/46/45 32/12/46 1/14/47
f 34/108/48 38/109/49 54/97/7
f 77/79/50 12/32/51 13/31/52
f 119/6/53 56/110/54 55/99/10
f 76/78/55 11/33/35 12/32/51
f 120/5/56 57/106/33 56/110/54
f 104/90/57 41/111/58 40/112/59
f 124/95/60 61/113/50 60/114/55
f 112/94/61 49/115/45 48/116/62
f 72/85/54 7/7/63 8/3/34
f 114/69/64 51/117/40 50/118/65
f 115/70/66 52/119/67 51/117/40
f 65/36/65 1/14/47 2/13/41
f 116/96/68 53/98/8 52/119/67
f 68/39/67 3/11/42 4/10/38
f 94/48/69 29/18/22 30/17/70
f 84/64/15 19/26/31 20/25/4
f 110/76/71 47/120/72 46/121/69
f 128/92/73 33/122/74 64/104/18
f 78/74/75 13/31/52 14/30/76
f 126/50/77 63/105/19 62/123/75
f 111/77/78 48/116/62 47/120/72
f 97/91/79 35/103/16 34/108/48
f 95/49/72 30/17/70 31/15/80
f 87/62/81 22/23/82 23/22/83
f 81/72/74 16/2/26 17/28/84
f 98/47/85 34/108/48 33/122/74
f 92/52/86 27/19/37 28/16/21
f 109/80/87 46/121/69 45/124/20
f 102/44/88 39/125/81 38/109/49
f 82/67/48 17/28/84 18/27/30
f 103/88/89 40/112/59 39/125/81
f 86/61/49 21/24/5 22/23/82
f 108/93/90 45/124/20 44/126/86
f 71/89/10 6/8/44 7/7/63
f 107/84/91 44/126/86 43/127/36
f 106/83/92 43/127/36 42/128/27
f 105/87/93 42/128/27 41/111/58
f 71/89/10 102/44/88 70/42/7
f 89/59/58 24/1/94 25/21/28
f 101/43/95 38/109/49 37/107/3
f 79/75/19 14/30/76 15/29/25
f 96/45/62 31/15/80 32/12/46
f 113/73/96 50/118/65 49/115/45
f 123/58/97 60/114/55 59/100/12
f 88/4/59 23/22/83 24/1/94
f 125/54/98 62/123/75 61/113/50
f 85/65/3 84/64/15 20/25/4
f 117/66/6 118/63/9 54/97/7
f 118/63/9 119/6/53 55/99/10
f 122/57/11 123/58/97 59/100/12
f 99/38/14 100/40/43 36/102/15
f 127/51/17 128/92/73 64/104/18
f 93/53/20 92/52/86 28/16/21
f 74/81/13 73/86/33 9/35/23
f 80/71/18 79/75/19 15/29/25
f 90/55/27 89/59/58 25/21/28
f 83/68/16 82/67/48 18/27/30
f 121/60/32 122/57/11 58/101/13
f 73/86/33 72/85/54 8/3/34
f 75/82/12 74/81/13 10/34/24
f 91/56/36 90/55/27 26/20/29
f 69/41/8 68/39/67 4/10/38
f 67/37/40 65/36/65 2/13/41
f 100/40/43 101/43/95 37/107/3
f 70/42/7 69/41/8 5/9/39
f 66/46/45 96/45/62 32/12/46
f 38/109/49 39/125/81 42/128/27
f 39/125/81 40/112/59 42/128/27
f 40/112/59 41/111/58 42/128/27
f 42/128/27 43/127/36 44/126/86
f 44/126/86 45/124/20 42/128/27
f 45/124/20 46/121/69 42/128/27
f 46/121/69 47/120/72 50/118/65
f 47/120/72 48/116/62 50/118/65
f 48/116/62 49/115/45 50/118/65
f 50/118/65 51/117/40 52/119/67
f 52/119/67 53/98/8 54/97/7
f 54/97/7 55/99/10 56/110/54
f 56/110/54 57/106/33 58/101/13
f 58/101/13 59/100/12 62/123/75
f 59/100/12 60/114/55 62/123/75
f 60/114/55 61/113/50 62/123/75
f 62/123/75 63/105/19 64/104/18
f 64/104/18 33/122/74 34/108/48
f 34/108/48 35/103/16 36/102/15
f 36/102/15 37/107/3 34/108/48
f 37/107/3 38/109/49 34/108/48
f 50/118/65 52/119/67 46/121/69
f 52/119/67 54/97/7 46/121/69
f 54/97/7 56/110/54 58/101/13
f 62/123/75 64/104/18 34/108/48
f 38/109/49 42/128/27 54/97/7
f 42/128/27 46/121/69 54/97/7
f 54/97/7 58/101/13 62/123/75
f 62/123/75 34/108/48 54/97/7
f 77/79/50 76/78/55 12/32/51
f 119/6/53 120/5/56 56/110/54
f 76/78/55 75/82/12 11/33/35
f 120/5/56 121/60/32 57/106/33
f 104/90/57 105/87/93 41/111/58
f 124/95/60 125/54/98 61/113/50
f 112/94/61 113/73/96 49/115/45
f 72/85/54 71/89/10 7/7/63
f 114/69/64 115/70/66 51/117/40
f 115/70/66 116/96/68 52/119/67
f 65/36/65 66/46/45 1/14/47
f 116/96/68 117/66/6 53/98/8
f 68/39/67 67/37/40 3/11/42
f 94/48/69 93/53/20 29/18/22
f 84/64/15 83/68/16 19/26/31
f 110/76/71 111/77/78 47/120/72
f 128/92/73 98/47/85 33/122/74
f 78/74/75 77/79/50 13/31/52
f 126/50/77 127/51/17 63/105/19
f 111/77/78 112/94/61 48/116/62
f 97/91/79 99/38/14 35/103/16
f 95/49/72 94/48/69 30/17/70
f 87/62/81 86/61/49 22/23/82
f 81/72/74 80/71/18 16/2/26
f 98/47/85 97/91/79 34/108/48
f 92/52/86 91/56/36 27/19/37
f 109/80/87 110/76/71 46/121/69
f 102/44/88 103/88/89 39/125/81
f 82/67/48 81/72/74 17/28/84
f 103/88/89 104/90/57 40/112/59
f 86/61/49 85/65/3 21/24/5
f 108/93/90 109/80/87 45/124/20
f 71/89/10 70/42/7 6/8/44
f 107/84/91 108/93/90 44/126/86
f 106/83/92 107/84/91 43/127/36
f 105/87/93 106/83/92 42/128/27
f 71/89/10 103/88/89 102/44/88
f 89/59/58 88/4/59 24/1/94
f 101/43/95 102/44/88 38/109/49
f 79/75/19 78/74/75 14/30/76
f 96/45/62 95/49/72 31/15/80
f 113/73/96 114/69/64 50/118/65
f 123/58/97 124/95/60 60/114/55
f 88/4/59 87/62/81 23/22/83
f 125/54/98 126/50/77 62/123/75
