{
    "asset" : {
        "generator" : "Khronos glTF Blender I/O v1.6.16",
        "version" : "2.0"
    },
    "scene" : 0,
    "scenes" : [
        {
            "name" : "Scene",
            "nodes" : [
                0,
                1,
                2,
                3,
                4,
                5,
                6,
                7,
                8,
                9
            ]
        }
    ],
    "nodes" : [
        {
            "name" : "Light",
            "rotation" : [
                0.16907575726509094,
                0.7558803558349609,
                -0.27217137813568115,
                0.570947527885437
            ],
            "translation" : [
                6.076245307922363,
                5.903861999511719,
                -4.005454063415527
            ]
        },
        {
            "name" : "Camera",
            "rotation" : [
                0.483536034822464,
                0.33687159419059753,
                -0.20870360732078552,
                0.7804827094078064
            ],
            "translation" : [
                9.358891487121582,
                4.958309173583984,
                3.925790786743164
            ]
        },
        {
            "name" : "Light.001",
            "rotation" : [
                0.16907575726509094,
                0.7558803558349609,
                -0.27217137813568115,
                0.570947527885437
            ],
            "translation" : [
                6.076245307922363,
                5.903861999511719,
                -8.005454063415527
            ]
        },
        {
            "name" : "Light.002",
            "rotation" : [
                0.16907575726509094,
                0.7558803558349609,
                -0.27217137813568115,
                0.570947527885437
            ],
            "translation" : [
                -1.9237546920776367,
                5.903861999511719,
                -4.005454063415527
            ]
        },
        {
            "name" : "Light.003",
            "rotation" : [
                0.16907575726509094,
                0.7558803558349609,
                -0.27217137813568115,
                0.570947527885437
            ],
            "translation" : [
                -1.9237546920776367,
                5.903861999511719,
                -8.005454063415527
            ]
        },
        {
            "name" : "Light.004",
            "rotation" : [
                0.16907575726509094,
                0.7558803558349609,
                -0.27217137813568115,
                0.570947527885437
            ],
            "translation" : [
                6.076245307922363,
                5.903861999511719,
                3.9945459365844727
            ]
        },
        {
            "name" : "Light.005",
            "rotation" : [
                0.16907575726509094,
                0.7558803558349609,
                -0.27217137813568115,
                0.570947527885437
            ],
            "translation" : [
                6.076245307922363,
                5.903861999511719,
                -0.005454063415527344
            ]
        },
        {
            "name" : "Light.006",
            "rotation" : [
                0.16907575726509094,
                0.7558803558349609,
                -0.27217137813568115,
                0.570947527885437
            ],
            "translation" : [
                -1.9237546920776367,
                5.903861999511719,
                3.9945459365844727
            ]
        },
        {
            "name" : "Light.007",
            "rotation" : [
                0.16907575726509094,
                0.7558803558349609,
                -0.27217137813568115,
                0.570947527885437
            ],
            "translation" : [
                -1.9237546920776367,
                5.903861999511719,
                -0.005454063415527344
            ]
        },
        {
            "mesh" : 0,
            "name" : "Cube.1002",
            "translation" : [
                -1,
                0,
                2
            ]
        }
    ],
    "materials" : [
        {
            "doubleSided" : true,
            "name" : "Tile",
            "pbrMetallicRoughness" : {
                "baseColorFactor" : [
                    0.7203150391578674,
                    0.7200000286102295,
                    0.8000000715255737,
                    1
                ],
                "metallicFactor" : 0,
                "roughnessFactor" : 0.5
            }
        },
        {
            "doubleSided" : true,
            "name" : "Material",
            "pbrMetallicRoughness" : {
                "baseColorFactor" : [
                    0.4704945683479309,
                    0.5,
                    0.32998502254486084,
                    1
                ],
                "metallicFactor" : 0,
                "roughnessFactor" : 0.4000000059604645
            }
        },
        {
            "doubleSided" : true,
            "name" : "bumper",
            "pbrMetallicRoughness" : {
                "baseColorFactor" : [
                    0.028605783358216286,
                    0.045121826231479645,
                    0.13286322355270386,
                    1
                ],
                "metallicFactor" : 0,
                "roughnessFactor" : 0.5
            }
        }
    ],
    "meshes" : [
        {
            "name" : "Cube.001",
            "primitives" : [
                {
                    "attributes" : {
                        "POSITION" : 0,
                        "NORMAL" : 1,
                        "TEXCOORD_0" : 2
                    },
                    "indices" : 3,
                    "material" : 0
                },
                {
                    "attributes" : {
                        "POSITION" : 4,
                        "NORMAL" : 5,
                        "TEXCOORD_0" : 6
                    },
                    "indices" : 7,
                    "material" : 1
                },
                {
                    "attributes" : {
                        "POSITION" : 8,
                        "NORMAL" : 9,
                        "TEXCOORD_0" : 10
                    },
                    "indices" : 11,
                    "material" : 2
                }
            ]
        }
    ],
    "accessors" : [
        {
            "bufferView" : 0,
            "componentType" : 5126,
            "count" : 51200,
            "max" : [
                9,
                0,
                5
            ],
            "min" : [
                -7,
                -0.019999999552965164,
                -11
            ],
            "type" : "VEC3"
        },
        {
            "bufferView" : 1,
            "componentType" : 5126,
            "count" : 51200,
            "type" : "VEC3"
        },
        {
            "bufferView" : 2,
            "componentType" : 5126,
            "count" : 51200,
            "type" : "VEC2"
        },
        {
            "bufferView" : 3,
            "componentType" : 5123,
            "count" : 86016,
            "type" : "SCALAR"
        },
        {
            "bufferView" : 4,
            "componentType" : 5126,
            "count" : 2592,
            "max" : [
                7.5,
                3,
                2
            ],
            "min" : [
                -4.5,
                0,
                -7
            ],
            "type" : "VEC3"
        },
        {
            "bufferView" : 5,
            "componentType" : 5126,
            "count" : 2592,
            "type" : "VEC3"
        },
        {
            "bufferView" : 6,
            "componentType" : 5126,
            "count" : 2592,
            "type" : "VEC2"
        },
        {
            "bufferView" : 7,
            "componentType" : 5123,
            "count" : 3888,
            "type" : "SCALAR"
        },
        {
            "bufferView" : 8,
            "componentType" : 5126,
            "count" : 864,
            "max" : [
                7.599999904632568,
                1.0066088438034058,
                2.099867820739746
            ],
            "min" : [
                -4.599999904632568,
                0.7954789400100708,
                -7.1039299964904785
            ],
            "type" : "VEC3"
        },
        {
            "bufferView" : 9,
            "componentType" : 5126,
            "count" : 864,
            "type" : "VEC3"
        },
        {
            "bufferView" : 10,
            "componentType" : 5126,
            "count" : 864,
            "type" : "VEC2"
        },
        {
            "bufferView" : 11,
            "componentType" : 5123,
            "count" : 1296,
            "type" : "SCALAR"
        }
    ],
    "bufferViews" : [
        {
            "buffer" : 0,
            "byteLength" : 614400,
            "byteOffset" : 0
        },
        {
            "buffer" : 0,
            "byteLength" : 614400,
            "byteOffset" : 614400
        },
        {
            "buffer" : 0,
            "byteLength" : 409600,
            "byteOffset" : 1228800
        },
        {
            "buffer" : 0,
            "byteLength" : 172032,
            "byteOffset" : 1638400
        },
        {
            "buffer" : 0,
            "byteLength" : 31104,
            "byteOffset" : 1810432
        },
        {
            "buffer" : 0,
            "byteLength" : 31104,
            "byteOffset" : 1841536
        },
        {
            "buffer" : 0,
            "byteLength" : 20736,
            "byteOffset" : 1872640
        },
        {
            "buffer" : 0,
            "byteLength" : 7776,
            "byteOffset" : 1893376
        },
        {
            "buffer" : 0,
            "byteLength" : 10368,
            "byteOffset" : 1901152
        },
        {
            "buffer" : 0,
            "byteLength" : 10368,
            "byteOffset" : 1911520
        },
        {
            "buffer" : 0,
            "byteLength" : 6912,
            "byteOffset" : 1921888
        },
        {
            "buffer" : 0,
            "byteLength" : 2592,
            "byteOffset" : 1928800
        }
    ],
    "buffers" : [
        {
            "byteLength" : 1931392,
            "uri" : "data:application/octet-stream;base64,"
        }
    ]
}
