{
    "asset" : {
        "generator" : "Khronos glTF Blender I/O v1.6.16",
        "version" : "2.0"
    },
    "scene" : 0,
    "scenes" : [
        {
            "name" : "Scene",
            "nodes" : [
                0,
                1,
                2,
                3,
                4,
                5
            ]
        }
    ],
    "nodes" : [
        {
            "name" : "Camera",
            "rotation" : [
                0.483536034822464,
                0.33687159419059753,
                -0.20870360732078552,
                0.7804827094078064
            ],
            "translation" : [
                9.358891487121582,
                4.958309173583984,
                3.925790786743164
            ]
        },
        {
            "name" : "Light.004",
            "rotation" : [
                0.16907575726509094,
                0.7558803558349609,
                -0.27217137813568115,
                0.570947527885437
            ],
            "translation" : [
                6.076245307922363,
                5.903861999511719,
                3.9945459365844727
            ]
        },
        {
            "name" : "Light.005",
            "rotation" : [
                0.16907575726509094,
                0.7558803558349609,
                -0.27217137813568115,
                0.570947527885437
            ],
            "translation" : [
                6.076245307922363,
                5.903861999511719,
                -0.005454063415527344
            ]
        },
        {
            "name" : "Light.006",
            "rotation" : [
                0.16907575726509094,
                0.7558803558349609,
                -0.27217137813568115,
                0.570947527885437
            ],
            "translation" : [
                -1.9237546920776367,
                5.903861999511719,
                3.9945459365844727
            ]
        },
        {
            "name" : "Light.007",
            "rotation" : [
                0.16907575726509094,
                0.7558803558349609,
                -0.27217137813568115,
                0.570947527885437
            ],
            "translation" : [
                -1.9237546920776367,
                5.903861999511719,
                -0.005454063415527344
            ]
        },
        {
            "mesh" : 0,
            "name" : "Cube.010",
            "rotation" : [
                0,
                1,
                0,
                7.549790126404332e-08
            ],
            "translation" : [
                9.700000762939453,
                -0.19999980926513672,
                10.100000381469727
            ]
        }
    ],
    "materials" : [
        {
            "doubleSided" : true,
            "name" : "Tile",
            "pbrMetallicRoughness" : {
                "baseColorFactor" : [
                    0.7203150391578674,
                    0.7200000286102295,
                    0.8000000715255737,
                    1
                ],
                "metallicFactor" : 0,
                "roughnessFactor" : 0.5
            }
        },
        {
            "doubleSided" : true,
            "name" : "Material",
            "pbrMetallicRoughness" : {
                "baseColorFactor" : [
                    0.4704945683479309,
                    0.5,
                    0.32998502254486084,
                    1
                ],
                "metallicFactor" : 0,
                "roughnessFactor" : 0.4000000059604645
            }
        },
        {
            "doubleSided" : true,
            "name" : "bumper",
            "pbrMetallicRoughness" : {
                "baseColorFactor" : [
                    0.028605783358216286,
                    0.045121826231479645,
                    0.13286322355270386,
                    1
                ],
                "metallicFactor" : 0,
                "roughnessFactor" : 0.5
            }
        }
    ],
    "meshes" : [
        {
            "name" : "Cube.004",
            "primitives" : [
                {
                    "attributes" : {
                        "POSITION" : 0,
                        "NORMAL" : 1,
                        "TEXCOORD_0" : 2
                    },
                    "indices" : 3,
                    "material" : 0
                },
                {
                    "attributes" : {
                        "POSITION" : 4,
                        "NORMAL" : 5,
                        "TEXCOORD_0" : 6
                    },
                    "indices" : 7,
                    "material" : 1
                },
                {
                    "attributes" : {
                        "POSITION" : 8,
                        "NORMAL" : 9,
                        "TEXCOORD_0" : 10
                    },
                    "indices" : 11,
                    "material" : 2
                }
            ]
        }
    ],
    "accessors" : [
        {
            "bufferView" : 0,
            "componentType" : 5126,
            "count" : 18816,
            "max" : [
                17.700002670288086,
                6.674194812774658,
                12.09999942779541
            ],
            "min" : [
                -0.29999998211860657,
                -1.7881393432617188e-07,
                1.7881393432617188e-07
            ],
            "type" : "VEC3"
        },
        {
            "bufferView" : 1,
            "componentType" : 5126,
            "count" : 18816,
            "type" : "VEC3"
        },
        {
            "bufferView" : 2,
            "componentType" : 5126,
            "count" : 18816,
            "type" : "VEC2"
        },
        {
            "bufferView" : 3,
            "componentType" : 5123,
            "count" : 28278,
            "type" : "SCALAR"
        },
        {
            "bufferView" : 4,
            "componentType" : 5126,
            "count" : 1644,
            "max" : [
                15.200002670288086,
                3.1999998092651367,
                12.099998474121094
            ],
            "min" : [
                3.2000021934509277,
                0.19999980926513672,
                6.099997520446777
            ],
            "type" : "VEC3"
        },
        {
            "bufferView" : 5,
            "componentType" : 5126,
            "count" : 1644,
            "type" : "VEC3"
        },
        {
            "bufferView" : 6,
            "componentType" : 5126,
            "count" : 1644,
            "type" : "VEC2"
        },
        {
            "bufferView" : 7,
            "componentType" : 5123,
            "count" : 2466,
            "type" : "SCALAR"
        },
        {
            "bufferView" : 8,
            "componentType" : 5126,
            "count" : 2233,
            "max" : [
                20.70000457763672,
                6.674194812774658,
                20.100000381469727
            ],
            "min" : [
                -0.2999992370605469,
                -2.000000238418579,
                -3.635883331298828e-06
            ],
            "type" : "VEC3"
        },
        {
            "bufferView" : 9,
            "componentType" : 5126,
            "count" : 2233,
            "type" : "VEC3"
        },
        {
            "bufferView" : 10,
            "componentType" : 5126,
            "count" : 2233,
            "type" : "VEC2"
        },
        {
            "bufferView" : 11,
            "componentType" : 5123,
            "count" : 3870,
            "type" : "SCALAR"
        }
    ],
    "bufferViews" : [
        {
            "buffer" : 0,
            "byteLength" : 225792,
            "byteOffset" : 0
        },
        {
            "buffer" : 0,
            "byteLength" : 225792,
            "byteOffset" : 225792
        },
        {
            "buffer" : 0,
            "byteLength" : 150528,
            "byteOffset" : 451584
        },
        {
            "buffer" : 0,
            "byteLength" : 56556,
            "byteOffset" : 602112
        },
        {
            "buffer" : 0,
            "byteLength" : 19728,
            "byteOffset" : 658668
        },
        {
            "buffer" : 0,
            "byteLength" : 19728,
            "byteOffset" : 678396
        },
        {
            "buffer" : 0,
            "byteLength" : 13152,
            "byteOffset" : 698124
        },
        {
            "buffer" : 0,
            "byteLength" : 4932,
            "byteOffset" : 711276
        },
        {
            "buffer" : 0,
            "byteLength" : 26796,
            "byteOffset" : 716208
        },
        {
            "buffer" : 0,
            "byteLength" : 26796,
            "byteOffset" : 743004
        },
        {
            "buffer" : 0,
            "byteLength" : 17864,
            "byteOffset" : 769800
        },
        {
            "buffer" : 0,
            "byteLength" : 7740,
            "byteOffset" : 787664
        }
    ],
    "buffers" : [
        {
            "byteLength" : 795404,
            "uri" : "data:application/octet-stream;base64,"
        }
    ]
}
