{
    "asset" : {
        "generator" : "Khronos glTF Blender I/O v1.6.16",
        "version" : "2.0"
    },
    "scene" : 0,
    "scenes" : [
        {
            "name" : "Scene",
            "nodes" : [
                0,
                1,
                2,
                3,
                4,
                5
            ]
        }
    ],
    "nodes" : [
        {
            "name" : "Camera",
            "rotation" : [
                0.483536034822464,
                0.33687159419059753,
                -0.20870360732078552,
                0.7804827094078064
            ],
            "translation" : [
                9.358891487121582,
                4.958309173583984,
                5.425790786743164
            ]
        },
        {
            "name" : "Light.004",
            "rotation" : [
                0.16907575726509094,
                0.7558803558349609,
                -0.27217137813568115,
                0.570947527885437
            ],
            "translation" : [
                6.076245307922363,
                5.903861999511719,
                5.494545936584473
            ]
        },
        {
            "name" : "Light.005",
            "rotation" : [
                0.16907575726509094,
                0.7558803558349609,
                -0.27217137813568115,
                0.570947527885437
            ],
            "translation" : [
                6.076245307922363,
                5.903861999511719,
                1.4945459365844727
            ]
        },
        {
            "name" : "Light.006",
            "rotation" : [
                0.16907575726509094,
                0.7558803558349609,
                -0.27217137813568115,
                0.570947527885437
            ],
            "translation" : [
                -1.9237546920776367,
                5.903861999511719,
                5.494545936584473
            ]
        },
        {
            "name" : "Light.007",
            "rotation" : [
                0.16907575726509094,
                0.7558803558349609,
                -0.27217137813568115,
                0.570947527885437
            ],
            "translation" : [
                -1.9237546920776367,
                5.903861999511719,
                1.4945459365844727
            ]
        },
        {
            "mesh" : 0,
            "name" : "force field",
            "translation" : [
                0,
                1.600000023841858,
                -1.100000023841858
            ]
        }
    ],
    "materials" : [
        {
            "alphaMode" : "BLEND",
            "doubleSided" : true,
            "emissiveFactor" : [
                0,
                0.0001766681671142578,
                0.1679486632347107
            ],
            "name" : "Glassy",
            "pbrMetallicRoughness" : {
                "baseColorFactor" : [
                    0,
                    0.02142140083014965,
                    0.8000000715255737,
                    0.5
                ],
                "metallicFactor" : 0,
                "roughnessFactor" : 0.5
            }
        },
        {
            "doubleSided" : true,
            "name" : "Tile",
            "pbrMetallicRoughness" : {
                "baseColorFactor" : [
                    0.7203150391578674,
                    0.7200000286102295,
                    0.8000000715255737,
                    1
                ],
                "metallicFactor" : 0,
                "roughnessFactor" : 0.5
            }
        },
        {
            "doubleSided" : true,
            "name" : "Material",
            "pbrMetallicRoughness" : {
                "baseColorFactor" : [
                    0.4704945683479309,
                    0.5,
                    0.32998502254486084,
                    1
                ],
                "metallicFactor" : 0,
                "roughnessFactor" : 0.4000000059604645
            }
        },
        {
            "doubleSided" : true,
            "name" : "bumper",
            "pbrMetallicRoughness" : {
                "baseColorFactor" : [
                    0.028605783358216286,
                    0.045121826231479645,
                    0.13286322355270386,
                    1
                ],
                "metallicFactor" : 0,
                "roughnessFactor" : 0.5
            }
        },
        {
            "doubleSided" : true,
            "name" : "Material.001",
            "pbrMetallicRoughness" : {
                "baseColorFactor" : [
                    0.7558363676071167,
                    0.8000000715255737,
                    0.09086345136165619,
                    1
                ],
                "metallicFactor" : 0
            }
        },
        {
            "doubleSided" : true,
            "name" : "Cement",
            "pbrMetallicRoughness" : {
                "baseColorTexture" : {
                    "index" : 0
                },
                "metallicFactor" : 0,
                "roughnessFactor" : 0.5
            }
        },
        {
            "doubleSided" : true,
            "emissiveFactor" : [
                1,
                1,
                1
            ],
            "name" : "Neon White",
            "pbrMetallicRoughness" : {
                "baseColorFactor" : [
                    0.800000011920929,
                    0.800000011920929,
                    0.800000011920929,
                    1
                ],
                "metallicFactor" : 0,
                "roughnessFactor" : 0.5
            }
        }
    ],
    "meshes" : [
        {
            "name" : "Cube.007",
            "primitives" : [
                {
                    "attributes" : {
                        "POSITION" : 0,
                        "NORMAL" : 1,
                        "TEXCOORD_0" : 2
                    },
                    "indices" : 3,
                    "material" : 0
                },
                {
                    "attributes" : {
                        "POSITION" : 4,
                        "NORMAL" : 5,
                        "TEXCOORD_0" : 6
                    },
                    "indices" : 7,
                    "material" : 1
                },
                {
                    "attributes" : {
                        "POSITION" : 8,
                        "NORMAL" : 9,
                        "TEXCOORD_0" : 10
                    },
                    "indices" : 11,
                    "material" : 2
                },
                {
                    "attributes" : {
                        "POSITION" : 12,
                        "NORMAL" : 13,
                        "TEXCOORD_0" : 14
                    },
                    "indices" : 15,
                    "material" : 3
                },
                {
                    "attributes" : {
                        "POSITION" : 16,
                        "NORMAL" : 17,
                        "TEXCOORD_0" : 18
                    },
                    "indices" : 19,
                    "material" : 4
                },
                {
                    "attributes" : {
                        "POSITION" : 20,
                        "NORMAL" : 21,
                        "TEXCOORD_0" : 22
                    },
                    "indices" : 23,
                    "material" : 5
                },
                {
                    "attributes" : {
                        "POSITION" : 24,
                        "NORMAL" : 25,
                        "TEXCOORD_0" : 26
                    },
                    "indices" : 27,
                    "material" : 6
                }
            ]
        }
    ],
    "textures" : [
        {
            "sampler" : 0,
            "source" : 0
        }
    ],
    "images" : [
        {
            "bufferView" : 24,
            "mimeType" : "image/jpeg",
            "name" : "cement"
        }
    ],
    "accessors" : [
        {
            "bufferView" : 0,
            "componentType" : 5126,
            "count" : 766,
            "max" : [
                1.0940871238708496,
                1.3306219577789307,
                0.06808806955814362
            ],
            "min" : [
                -1.0940871238708496,
                -1.3306219577789307,
                -0.19215959310531616
            ],
            "type" : "VEC3"
        },
        {
            "bufferView" : 1,
            "componentType" : 5126,
            "count" : 766,
            "type" : "VEC3"
        },
        {
            "bufferView" : 2,
            "componentType" : 5126,
            "count" : 766,
            "type" : "VEC2"
        },
        {
            "bufferView" : 3,
            "componentType" : 5123,
            "count" : 4200,
            "type" : "SCALAR"
        },
        {
            "bufferView" : 4,
            "componentType" : 5126,
            "count" : 11844,
            "max" : [
                10.112390518188477,
                4.599999904632568,
                12.704867362976074
            ],
            "min" : [
                -10.899999618530273,
                -2.200000047683716,
                -7.500000476837158
            ],
            "type" : "VEC3"
        },
        {
            "bufferView" : 5,
            "componentType" : 5126,
            "count" : 11844,
            "type" : "VEC3"
        },
        {
            "bufferView" : 6,
            "componentType" : 5126,
            "count" : 11844,
            "type" : "VEC2"
        },
        {
            "bufferView" : 7,
            "componentType" : 5123,
            "count" : 17772,
            "type" : "SCALAR"
        },
        {
            "bufferView" : 8,
            "componentType" : 5126,
            "count" : 1644,
            "max" : [
                6.5,
                1.399999976158142,
                6.599999904632568
            ],
            "min" : [
                -5.5,
                -1.600000023841858,
                0.6000000238418579
            ],
            "type" : "VEC3"
        },
        {
            "bufferView" : 9,
            "componentType" : 5126,
            "count" : 1644,
            "type" : "VEC3"
        },
        {
            "bufferView" : 10,
            "componentType" : 5126,
            "count" : 1644,
            "type" : "VEC2"
        },
        {
            "bufferView" : 11,
            "componentType" : 5123,
            "count" : 2466,
            "type" : "SCALAR"
        },
        {
            "bufferView" : 12,
            "componentType" : 5126,
            "count" : 624,
            "max" : [
                6.599999904632568,
                1,
                6.6998677253723145
            ],
            "min" : [
                -5.599999904632568,
                -2.200000047683716,
                -7.400000095367432
            ],
            "type" : "VEC3"
        },
        {
            "bufferView" : 13,
            "componentType" : 5126,
            "count" : 624,
            "type" : "VEC3"
        },
        {
            "bufferView" : 14,
            "componentType" : 5126,
            "count" : 624,
            "type" : "VEC2"
        },
        {
            "bufferView" : 15,
            "componentType" : 5123,
            "count" : 936,
            "type" : "SCALAR"
        },
        {
            "bufferView" : 16,
            "componentType" : 5126,
            "count" : 1526,
            "max" : [
                10.000000953674316,
                4.5,
                12.600000381469727
            ],
            "min" : [
                -11,
                -3.3000001907348633,
                -7.400000095367432
            ],
            "type" : "VEC3"
        },
        {
            "bufferView" : 17,
            "componentType" : 5126,
            "count" : 1526,
            "type" : "VEC3"
        },
        {
            "bufferView" : 18,
            "componentType" : 5126,
            "count" : 1526,
            "type" : "VEC2"
        },
        {
            "bufferView" : 19,
            "componentType" : 5123,
            "count" : 2832,
            "type" : "SCALAR"
        },
        {
            "bufferView" : 20,
            "componentType" : 5126,
            "count" : 24,
            "max" : [
                10,
                -2.200000047683716,
                12.600000381469727
            ],
            "min" : [
                -11,
                -4.199999809265137,
                -7.400000095367432
            ],
            "type" : "VEC3"
        },
        {
            "bufferView" : 21,
            "componentType" : 5126,
            "count" : 24,
            "type" : "VEC3"
        },
        {
            "bufferView" : 22,
            "componentType" : 5126,
            "count" : 24,
            "type" : "VEC2"
        },
        {
            "bufferView" : 23,
            "componentType" : 5123,
            "count" : 36,
            "type" : "SCALAR"
        },
        {
            "bufferView" : 25,
            "componentType" : 5126,
            "count" : 48,
            "max" : [
                0.9600000381469727,
                1.2000000476837158,
                0
            ],
            "min" : [
                -0.9600000381469727,
                -1.1999998092651367,
                -0.10000002384185791
            ],
            "type" : "VEC3"
        },
        {
            "bufferView" : 26,
            "componentType" : 5126,
            "count" : 48,
            "type" : "VEC3"
        },
        {
            "bufferView" : 27,
            "componentType" : 5126,
            "count" : 48,
            "type" : "VEC2"
        },
        {
            "bufferView" : 28,
            "componentType" : 5123,
            "count" : 72,
            "type" : "SCALAR"
        }
    ],
    "bufferViews" : [
        {
            "buffer" : 0,
            "byteLength" : 9192,
            "byteOffset" : 0
        },
        {
            "buffer" : 0,
            "byteLength" : 9192,
            "byteOffset" : 9192
        },
        {
            "buffer" : 0,
            "byteLength" : 6128,
            "byteOffset" : 18384
        },
        {
            "buffer" : 0,
            "byteLength" : 8400,
            "byteOffset" : 24512
        },
        {
            "buffer" : 0,
            "byteLength" : 142128,
            "byteOffset" : 32912
        },
        {
            "buffer" : 0,
            "byteLength" : 142128,
            "byteOffset" : 175040
        },
        {
            "buffer" : 0,
            "byteLength" : 94752,
            "byteOffset" : 317168
        },
        {
            "buffer" : 0,
            "byteLength" : 35544,
            "byteOffset" : 411920
        },
        {
            "buffer" : 0,
            "byteLength" : 19728,
            "byteOffset" : 447464
        },
        {
            "buffer" : 0,
            "byteLength" : 19728,
            "byteOffset" : 467192
        },
        {
            "buffer" : 0,
            "byteLength" : 13152,
            "byteOffset" : 486920
        },
        {
            "buffer" : 0,
            "byteLength" : 4932,
            "byteOffset" : 500072
        },
        {
            "buffer" : 0,
            "byteLength" : 7488,
            "byteOffset" : 505004
        },
        {
            "buffer" : 0,
            "byteLength" : 7488,
            "byteOffset" : 512492
        },
        {
            "buffer" : 0,
            "byteLength" : 4992,
            "byteOffset" : 519980
        },
        {
            "buffer" : 0,
            "byteLength" : 1872,
            "byteOffset" : 524972
        },
        {
            "buffer" : 0,
            "byteLength" : 18312,
            "byteOffset" : 526844
        },
        {
            "buffer" : 0,
            "byteLength" : 18312,
            "byteOffset" : 545156
        },
        {
            "buffer" : 0,
            "byteLength" : 12208,
            "byteOffset" : 563468
        },
        {
            "buffer" : 0,
            "byteLength" : 5664,
            "byteOffset" : 575676
        },
        {
            "buffer" : 0,
            "byteLength" : 288,
            "byteOffset" : 581340
        },
        {
            "buffer" : 0,
            "byteLength" : 288,
            "byteOffset" : 581628
        },
        {
            "buffer" : 0,
            "byteLength" : 192,
            "byteOffset" : 581916
        },
        {
            "buffer" : 0,
            "byteLength" : 72,
            "byteOffset" : 582108
        },
        {
            "buffer" : 0,
            "byteLength" : 1127766,
            "byteOffset" : 582180
        },
        {
            "buffer" : 0,
            "byteLength" : 576,
            "byteOffset" : 1709948
        },
        {
            "buffer" : 0,
            "byteLength" : 576,
            "byteOffset" : 1710524
        },
        {
            "buffer" : 0,
            "byteLength" : 384,
            "byteOffset" : 1711100
        },
        {
            "buffer" : 0,
            "byteLength" : 144,
            "byteOffset" : 1711484
        }
    ],
    "samplers" : [
        {
            "magFilter" : 9729,
            "minFilter" : 9987
        }
    ],
    "buffers" : [
        {
            "byteLength" : 1711628,
            "uri" : "data:application/octet-stream;base64,"
        }
    ]
}
