# Blender v2.93.4 OBJ File: 'lizard.blend'
# www.blender.org
mtllib lizard.mtl
o Body_Cube
v 2.028841 1.000000 -1.000000
v 2.028841 -1.000000 -1.000000
v 2.028841 1.000000 1.000000
v 2.028841 -1.000000 1.000000
v -1.506255 1.000000 -1.000000
v -1.506255 -1.000000 -1.000000
v -1.506255 1.000000 1.000000
v -1.506255 -1.000000 1.000000
v -2.976027 0.739300 -0.739300
v -2.976027 -0.739300 -0.739300
v -2.976027 0.739300 0.739300
v -2.976027 -0.739300 0.739300
v -4.886731 1.000000 -1.000000
v -4.886731 -1.000000 -1.000000
v -4.886731 1.000000 1.000000
v -4.886731 -1.000000 1.000000
v 9.002093 -0.996179 0.000000
v 9.002093 -0.996179 0.000000
v 9.002093 -0.996179 0.000000
v 9.002093 -0.996179 0.000000
v -6.601465 0.304455 -0.549417
v -6.601465 -0.794379 -0.549417
v -6.601465 0.304455 0.549417
v -6.601465 -0.794379 0.549417
vt 0.875000 0.500000
vt 0.625000 0.750000
vt 0.625000 0.500000
vt 0.375000 1.000000
vt 0.375000 0.750000
vt 0.375000 0.250000
vt 0.625000 0.250000
vt 0.625000 0.250000
vt 0.375000 0.500000
vt 0.125000 0.750000
vt 0.125000 0.500000
vt 0.625000 0.750000
vt 0.625000 0.500000
vt 0.375000 0.250000
vt 0.625000 0.250000
vt 0.625000 1.000000
vt 0.375000 1.000000
vt 0.125000 0.500000
vt 0.875000 0.750000
vt 0.875000 0.750000
vt 0.875000 0.500000
vt 0.875000 0.750000
vt 0.875000 0.750000
vt 0.125000 0.750000
vt 0.125000 0.500000
vt 0.875000 0.500000
vt 0.625000 1.000000
vt 0.375000 1.000000
vt 0.375000 0.500000
vt 0.375000 0.750000
vt 0.625000 0.000000
vt 0.375000 0.250000
vt 0.375000 0.000000
vt 0.625000 1.000000
vt 0.375000 1.000000
vt 0.375000 0.250000
vt 0.625000 0.250000
vt 0.125000 0.750000
vt 0.125000 0.500000
vt 0.875000 0.500000
vt 0.625000 1.000000
vt 0.125000 0.750000
vn 0.0000 1.0000 0.0000
vn 0.0000 0.0000 1.0000
vn -0.1746 0.0000 -0.9846
vn 0.0000 -1.0000 0.0000
vn 0.0000 0.0000 -1.0000
vn 0.1352 0.0000 -0.9908
vn -0.1746 0.0000 0.9846
vn -0.1746 -0.9846 0.0000
vn -0.1746 0.9846 0.0000
vn -0.3759 0.9267 0.0000
vn 0.1352 -0.9908 0.0000
vn 0.1352 0.9908 0.0000
vn 0.1352 0.0000 0.9908
vn -1.0000 0.0000 0.0000
vn -0.2541 0.0000 0.9672
vn -0.2541 0.0000 -0.9672
vn -0.1191 -0.9929 0.0000
vn 0.2752 0.9614 0.0000
vn 0.1420 0.0000 0.9899
vn 0.1420 0.0000 -0.9899
vn 0.0005 -1.0000 0.0000
usemtl Material
s off
f 5/1/1 3/2/1 1/3/1
f 3/2/2 8/4/2 4/5/2
f 6/6/3 9/7/3 5/8/3
f 2/9/4 8/10/4 6/11/4
f 1/3/2 19/12/2 17/13/2
f 5/8/5 2/9/5 6/6/5
f 10/14/6 13/15/6 9/7/6
f 7/16/7 12/17/7 8/4/7
f 8/10/8 10/18/8 6/11/8
f 5/1/9 11/19/9 7/20/9
f 13/21/10 23/22/10 15/23/10
f 12/24/11 14/25/11 10/18/11
f 9/26/12 15/23/12 11/19/12
f 11/27/13 16/28/13 12/17/13
f 18/29/2 19/12/2 20/30/2
f 3/2/2 20/30/2 19/12/2
f 2/9/2 17/13/2 18/29/2
f 4/5/2 18/29/2 20/30/2
f 23/31/14 22/32/14 24/33/14
f 16/28/15 23/34/15 24/35/15
f 14/36/16 21/37/16 13/15/16
f 16/38/17 22/39/17 14/25/17
f 5/1/1 7/20/1 3/2/1
f 3/2/2 7/16/2 8/4/2
f 6/6/3 10/14/3 9/7/3
f 2/9/4 4/5/4 8/10/4
f 1/3/18 3/2/18 19/12/18
f 5/8/5 1/3/5 2/9/5
f 10/14/6 14/36/6 13/15/6
f 7/16/7 11/27/7 12/17/7
f 8/10/8 12/24/8 10/18/8
f 5/1/9 9/26/9 11/19/9
f 13/21/10 21/40/10 23/22/10
f 12/24/11 16/38/11 14/25/11
f 9/26/12 13/21/12 15/23/12
f 11/27/13 15/41/13 16/28/13
f 18/29/2 17/13/2 19/12/2
f 3/2/19 4/5/19 20/30/19
f 2/9/20 1/3/20 17/13/20
f 4/5/21 2/9/21 18/29/21
f 23/31/14 21/37/14 22/32/14
f 16/28/15 15/41/15 23/34/15
f 14/36/16 22/32/16 21/37/16
f 16/38/17 24/42/17 22/39/17
o Foot-FR_Plane
v -4.229213 -1.012509 -2.490233
v -3.614568 -1.012509 -2.445909
v -4.672457 -1.012509 -3.714338
v -3.636730 -1.012509 -3.271095
v -4.282025 -1.012509 -3.329448
v -5.246080 -1.012509 -3.473502
v -4.426080 -1.012509 -3.052421
v -5.755811 -1.012509 -2.886204
v -4.414999 -1.012509 -2.753231
v -5.345810 -1.012509 -2.420799
v -4.969053 -1.012509 -1.999717
v -4.229213 -0.702224 -2.490233
v -3.614568 -0.702224 -2.445909
v -4.672457 -0.702224 -3.714338
v -3.636730 -0.702224 -3.271095
v -4.282025 -0.702224 -3.329448
v -5.246080 -0.702224 -3.473502
v -4.426080 -0.702224 -3.052421
v -5.755811 -0.702224 -2.886204
v -4.414999 -0.702224 -2.753231
v -5.345810 -0.702224 -2.420799
v -4.969053 -0.702224 -1.999717
vt 0.000000 0.000000
vt 0.000000 0.000000
vt 0.000000 0.000000
vt 0.000000 0.000000
vt 0.000000 0.000000
vt 0.000000 0.000000
vt 0.000000 0.000000
vt 0.000000 0.000000
vt 0.000000 0.000000
vt 0.000000 0.000000
vt 0.000000 0.000000
vt 0.000000 0.000000
vt 0.000000 0.000000
vt 0.000000 0.000000
vt 0.000000 0.000000
vt 0.000000 0.000000
vt 0.000000 0.000000
vt 0.000000 0.000000
vt 0.000000 0.000000
vt 0.000000 0.000000
vt 0.000000 0.000000
vt 0.000000 0.000000
vn -0.1240 0.0000 -0.9923
vn -0.7020 0.0000 0.7121
vn -0.3129 0.0000 -0.9498
vn -0.0987 0.0000 0.9951
vn 0.1478 0.0000 -0.9890
vn 0.9996 0.0000 -0.0268
vn -0.3363 0.0000 -0.9417
vn -0.4568 0.0000 0.8896
vn 0.3934 0.0000 -0.9194
vn -0.0621 0.0000 -0.9981
vn -0.5526 0.0000 -0.8335
usemtl None
s off
f 32/43/22 42/44/22 31/45/22
f 29/46/23 38/47/23 27/48/23
f 35/49/24 37/50/24 26/51/24
f 33/52/25 43/53/25 32/43/25
f 30/54/26 40/55/26 29/46/26
f 28/56/27 37/50/27 26/51/27
f 34/57/28 44/58/28 33/52/28
f 31/45/29 41/59/29 30/54/29
f 27/48/30 39/60/30 28/56/30
f 34/57/31 36/61/31 25/62/31
f 35/49/32 36/61/32 25/62/32
f 32/43/22 43/53/22 42/44/22
f 29/46/23 40/55/23 38/47/23
f 35/49/24 46/63/24 37/50/24
f 33/52/25 44/58/25 43/53/25
f 30/54/26 41/59/26 40/55/26
f 28/56/27 39/60/27 37/50/27
f 34/57/28 45/64/28 44/58/28
f 31/45/29 42/44/29 41/59/29
f 27/48/30 38/47/30 39/60/30
f 34/57/31 45/64/31 36/61/31
f 35/49/32 46/63/32 36/61/32
o Foor-FL_Plane.001
v -4.506837 -1.012509 3.241878
v -3.892191 -1.012509 3.286202
v -4.950080 -1.012509 2.017773
v -3.914353 -1.012509 2.461016
v -4.559649 -1.012509 2.402663
v -5.523705 -1.012509 2.258609
v -4.703704 -1.012509 2.679690
v -6.033434 -1.012509 2.845906
v -4.692622 -1.012509 2.978880
v -5.623434 -1.012509 3.311312
v -5.246676 -1.012509 3.732394
v -4.506837 -0.702224 3.241878
v -3.892191 -0.702224 3.286202
v -4.950080 -0.702224 2.017773
v -3.914353 -0.702224 2.461016
v -4.559649 -0.702224 2.402663
v -5.523705 -0.702224 2.258609
v -4.703704 -0.702224 2.679690
v -6.033434 -0.702224 2.845906
v -4.692622 -0.702224 2.978880
v -5.623434 -0.702224 3.311312
v -5.246676 -0.702224 3.732394
vt 0.000000 0.000000
vt 0.000000 0.000000
vt 0.000000 0.000000
vt 0.000000 0.000000
vt 0.000000 0.000000
vt 0.000000 0.000000
vt 0.000000 0.000000
vt 0.000000 0.000000
vt 0.000000 0.000000
vt 0.000000 0.000000
vt 0.000000 0.000000
vt 0.000000 0.000000
vt 0.000000 0.000000
vt 0.000000 0.000000
vt 0.000000 0.000000
vt 0.000000 0.000000
vt 0.000000 0.000000
vt 0.000000 0.000000
vt 0.000000 0.000000
vt 0.000000 0.000000
vt 0.000000 0.000000
vt 0.000000 0.000000
vn -0.1240 0.0000 -0.9923
vn -0.7020 0.0000 0.7121
vn -0.3129 0.0000 -0.9498
vn -0.0987 0.0000 0.9951
vn 0.1478 0.0000 -0.9890
vn 0.9996 0.0000 -0.0268
vn -0.3363 0.0000 -0.9417
vn -0.4568 0.0000 0.8896
vn 0.3934 0.0000 -0.9194
vn -0.0621 0.0000 -0.9981
vn -0.5526 0.0000 -0.8335
usemtl None
s off
f 54/65/33 64/66/33 53/67/33
f 51/68/34 60/69/34 49/70/34
f 57/71/35 59/72/35 48/73/35
f 55/74/36 65/75/36 54/65/36
f 52/76/37 62/77/37 51/68/37
f 50/78/38 59/72/38 48/73/38
f 56/79/39 66/80/39 55/74/39
f 53/67/40 63/81/40 52/76/40
f 49/70/41 61/82/41 50/78/41
f 56/79/42 58/83/42 47/84/42
f 57/71/43 58/83/43 47/84/43
f 54/65/33 65/75/33 64/66/33
f 51/68/34 62/77/34 60/69/34
f 57/71/35 68/85/35 59/72/35
f 55/74/36 66/80/36 65/75/36
f 52/76/37 63/81/37 62/77/37
f 50/78/38 61/82/38 59/72/38
f 56/79/39 67/86/39 66/80/39
f 53/67/40 64/66/40 63/81/40
f 49/70/41 60/69/41 61/82/41
f 56/79/42 67/86/42 58/83/42
f 57/71/43 68/85/43 58/83/43
o Foot-RL_Plane.002
v 3.446264 -1.012509 3.274540
v 4.060909 -1.012509 3.318864
v 3.003020 -1.012509 2.050434
v 4.038747 -1.012509 2.493678
v 3.393452 -1.012509 2.435325
v 2.429396 -1.012509 2.291271
v 3.249397 -1.012509 2.712352
v 1.919666 -1.012509 2.878568
v 3.260479 -1.012509 3.011542
v 2.329667 -1.012509 3.343974
v 2.706424 -1.012509 3.765056
v 3.446264 -0.702224 3.274540
v 4.060909 -0.702224 3.318864
v 3.003020 -0.702224 2.050434
v 4.038747 -0.702224 2.493678
v 3.393452 -0.702224 2.435325
v 2.429396 -0.702224 2.291271
v 3.249397 -0.702224 2.712352
v 1.919666 -0.702224 2.878568
v 3.260479 -0.702224 3.011542
v 2.329667 -0.702224 3.343974
v 2.706424 -0.702224 3.765056
vt 0.000000 0.000000
vt 0.000000 0.000000
vt 0.000000 0.000000
vt 0.000000 0.000000
vt 0.000000 0.000000
vt 0.000000 0.000000
vt 0.000000 0.000000
vt 0.000000 0.000000
vt 0.000000 0.000000
vt 0.000000 0.000000
vt 0.000000 0.000000
vt 0.000000 0.000000
vt 0.000000 0.000000
vt 0.000000 0.000000
vt 0.000000 0.000000
vt 0.000000 0.000000
vt 0.000000 0.000000
vt 0.000000 0.000000
vt 0.000000 0.000000
vt 0.000000 0.000000
vt 0.000000 0.000000
vt 0.000000 0.000000
vn -0.1240 0.0000 -0.9923
vn -0.7020 0.0000 0.7121
vn -0.3129 0.0000 -0.9498
vn -0.0987 0.0000 0.9951
vn 0.1478 0.0000 -0.9890
vn 0.9996 0.0000 -0.0268
vn -0.3363 0.0000 -0.9417
vn -0.4568 0.0000 0.8896
vn 0.3934 0.0000 -0.9194
vn -0.0621 0.0000 -0.9981
vn -0.5526 0.0000 -0.8335
usemtl None
s off
f 76/87/44 86/88/44 75/89/44
f 73/90/45 82/91/45 71/92/45
f 79/93/46 81/94/46 70/95/46
f 77/96/47 87/97/47 76/87/47
f 74/98/48 84/99/48 73/90/48
f 72/100/49 81/94/49 70/95/49
f 78/101/50 88/102/50 77/96/50
f 75/89/51 85/103/51 74/98/51
f 71/92/52 83/104/52 72/100/52
f 78/101/53 80/105/53 69/106/53
f 79/93/54 80/105/54 69/106/54
f 76/87/44 87/97/44 86/88/44
f 73/90/45 84/99/45 82/91/45
f 79/93/46 90/107/46 81/94/46
f 77/96/47 88/102/47 87/97/47
f 74/98/48 85/103/48 84/99/48
f 72/100/49 83/104/49 81/94/49
f 78/101/50 89/108/50 88/102/50
f 75/89/51 86/88/51 85/103/51
f 71/92/52 82/91/52 83/104/52
f 78/101/53 89/108/53 80/105/53
f 79/93/54 90/107/54 80/105/54
o Foot-RR_Plane.003
v 3.462595 -1.012509 -2.473902
v 4.077240 -1.012509 -2.429578
v 3.019351 -1.012509 -3.698007
v 4.055078 -1.012509 -3.254764
v 3.409782 -1.012509 -3.313117
v 2.445727 -1.012509 -3.457171
v 3.265728 -1.012509 -3.036090
v 1.935997 -1.012509 -2.869874
v 3.276809 -1.012509 -2.736900
v 2.345998 -1.012509 -2.404468
v 2.722755 -1.012509 -1.983386
v 3.462595 -0.702224 -2.473902
v 4.077240 -0.702224 -2.429578
v 3.019351 -0.702224 -3.698007
v 4.055078 -0.702224 -3.254764
v 3.409782 -0.702224 -3.313117
v 2.445727 -0.702224 -3.457171
v 3.265728 -0.702224 -3.036090
v 1.935997 -0.702224 -2.869874
v 3.276809 -0.702224 -2.736900
v 2.345998 -0.702224 -2.404468
v 2.722755 -0.702224 -1.983386
vt 0.000000 0.000000
vt 0.000000 0.000000
vt 0.000000 0.000000
vt 0.000000 0.000000
vt 0.000000 0.000000
vt 0.000000 0.000000
vt 0.000000 0.000000
vt 0.000000 0.000000
vt 0.000000 0.000000
vt 0.000000 0.000000
vt 0.000000 0.000000
vt 0.000000 0.000000
vt 0.000000 0.000000
vt 0.000000 0.000000
vt 0.000000 0.000000
vt 0.000000 0.000000
vt 0.000000 0.000000
vt 0.000000 0.000000
vt 0.000000 0.000000
vt 0.000000 0.000000
vt 0.000000 0.000000
vt 0.000000 0.000000
vn -0.1240 0.0000 -0.9923
vn -0.7020 0.0000 0.7121
vn -0.3129 0.0000 -0.9498
vn -0.0987 0.0000 0.9951
vn 0.1478 0.0000 -0.9890
vn 0.9996 0.0000 -0.0268
vn -0.3363 0.0000 -0.9417
vn -0.4568 0.0000 0.8896
vn 0.3934 0.0000 -0.9194
vn -0.0621 0.0000 -0.9981
vn -0.5526 0.0000 -0.8335
usemtl None
s off
f 98/109/55 108/110/55 97/111/55
f 95/112/56 104/113/56 93/114/56
f 101/115/57 103/116/57 92/117/57
f 99/118/58 109/119/58 98/109/58
f 96/120/59 106/121/59 95/112/59
f 94/122/60 103/116/60 92/117/60
f 100/123/61 110/124/61 99/118/61
f 97/111/62 107/125/62 96/120/62
f 93/114/63 105/126/63 94/122/63
f 100/123/64 102/127/64 91/128/64
f 101/115/65 102/127/65 91/128/65
f 98/109/55 109/119/55 108/110/55
f 95/112/56 106/121/56 104/113/56
f 101/115/57 112/129/57 103/116/57
f 99/118/58 110/124/58 109/119/58
f 96/120/59 107/125/59 106/121/59
f 94/122/60 105/126/60 103/116/60
f 100/123/61 111/130/61 110/124/61
f 97/111/62 108/110/62 107/125/62
f 93/114/63 104/113/63 105/126/63
f 100/123/64 111/130/64 102/127/64
f 101/115/65 112/129/65 102/127/65
