{
    "asset" : {
        "generator" : "Khronos glTF Blender I/O v1.6.16",
        "version" : "2.0"
    },
    "scene" : 0,
    "scenes" : [
        {
            "name" : "Scene",
            "nodes" : [
                0,
                1,
                2,
                3,
                4,
                5,
                6,
                7,
                8
            ]
        }
    ],
    "nodes" : [
        {
            "name" : "Camera",
            "rotation" : [
                0.24900680780410767,
                -0.7490209341049194,
                0.40162190794944763,
                0.4643953740596771
            ],
            "scale" : [
                0.266177237033844,
                0.266177237033844,
                0.266177237033844
            ],
            "translation" : [
                -2.1761322021484375,
                0,
                -1.625153660774231
            ]
        },
        {
            "name" : "Light",
            "rotation" : [
                0.16907575726509094,
                0.7558803558349609,
                -0.27217137813568115,
                0.570947527885437
            ],
            "scale" : [
                0.01884041726589203,
                0.01884041167795658,
                0.01884041726589203
            ],
            "translation" : [
                0.788398265838623,
                1.200463891029358,
                -0.19741877913475037
            ]
        },
        {
            "mesh" : 0,
            "name" : "Tail",
            "scale" : [
                0.01884041167795658,
                0.01884041167795658,
                0.01884041167795658
            ],
            "translation" : [
                0.07706280052661896,
                0.010307198390364647,
                0.00046167976688593626
            ]
        },
        {
            "mesh" : 1,
            "name" : "Head",
            "scale" : [
                0.01884041167795658,
                0.01884041167795658,
                0.01884041167795658
            ],
            "translation" : [
                -0.12003763765096664,
                0.018153013661503792,
                0.00046167976688593626
            ]
        },
        {
            "mesh" : 2,
            "name" : "Body",
            "scale" : [
                0.01884041167795658,
                0.01884041167795658,
                0.01884041167795658
            ],
            "translation" : [
                -0.04511016607284546,
                0.019691407680511475,
                0.00046167976688593626
            ]
        },
        {
            "mesh" : 3,
            "name" : "Foot-1",
            "scale" : [
                0.01884041167795658,
                0.01884041167795658,
                0.01884041167795658
            ],
            "translation" : [
                -0.07999999821186066,
                0.0020000000949949026,
                0.05000000074505806
            ]
        },
        {
            "mesh" : 4,
            "name" : "Foot-0",
            "scale" : [
                0.01884041167795658,
                0.01884041167795658,
                0.01884041167795658
            ],
            "translation" : [
                0.009999999776482582,
                0.0020000000949949026,
                0.05000000074505806
            ]
        },
        {
            "mesh" : 5,
            "name" : "Foot-2",
            "scale" : [
                0.01884041167795658,
                0.01884041167795658,
                0.01884041167795658
            ],
            "translation" : [
                -0.07999999821186066,
                0.0020000000949949026,
                -0.05000000074505806
            ]
        },
        {
            "mesh" : 6,
            "name" : "Foot-3",
            "scale" : [
                0.01884041167795658,
                0.01884041167795658,
                0.01884041167795658
            ],
            "translation" : [
                0.009999999776482582,
                0.0020000000949949026,
                -0.05000000074505806
            ]
        }
    ],
    "animations" : [
        {
            "channels" : [
                {
                    "sampler" : 0,
                    "target" : {
                        "node" : 5,
                        "path" : "translation"
                    }
                }
            ],
            "name" : "Foot-1Action",
            "samplers" : [
                {
                    "input" : 25,
                    "interpolation" : "LINEAR",
                    "output" : 26
                }
            ]
        },
        {
            "channels" : [
                {
                    "sampler" : 0,
                    "target" : {
                        "node" : 6,
                        "path" : "translation"
                    }
                }
            ],
            "name" : "Foot-0Action",
            "samplers" : [
                {
                    "input" : 25,
                    "interpolation" : "LINEAR",
                    "output" : 27
                }
            ]
        },
        {
            "channels" : [
                {
                    "sampler" : 0,
                    "target" : {
                        "node" : 7,
                        "path" : "translation"
                    }
                }
            ],
            "name" : "Foot-2Action",
            "samplers" : [
                {
                    "input" : 25,
                    "interpolation" : "LINEAR",
                    "output" : 28
                }
            ]
        },
        {
            "channels" : [
                {
                    "sampler" : 0,
                    "target" : {
                        "node" : 8,
                        "path" : "translation"
                    }
                }
            ],
            "name" : "Foot-3Action",
            "samplers" : [
                {
                    "input" : 25,
                    "interpolation" : "LINEAR",
                    "output" : 29
                }
            ]
        }
    ],
    "materials" : [
        {
            "doubleSided" : true,
            "name" : "Material",
            "pbrMetallicRoughness" : {
                "baseColorFactor" : [
                    0.800000011920929,
                    0.800000011920929,
                    0.800000011920929,
                    1
                ],
                "metallicFactor" : 0,
                "roughnessFactor" : 0.4000000059604645
            }
        }
    ],
    "meshes" : [
        {
            "name" : "Cube.002",
            "primitives" : [
                {
                    "attributes" : {
                        "POSITION" : 0,
                        "NORMAL" : 1,
                        "TEXCOORD_0" : 2
                    },
                    "indices" : 3,
                    "material" : 0
                }
            ]
        },
        {
            "name" : "Cube.003",
            "primitives" : [
                {
                    "attributes" : {
                        "POSITION" : 4,
                        "NORMAL" : 5,
                        "TEXCOORD_0" : 6
                    },
                    "indices" : 7,
                    "material" : 0
                }
            ]
        },
        {
            "name" : "Cube",
            "primitives" : [
                {
                    "attributes" : {
                        "POSITION" : 8,
                        "NORMAL" : 9,
                        "TEXCOORD_0" : 10
                    },
                    "indices" : 11,
                    "material" : 0
                }
            ]
        },
        {
            "name" : "Plane.001",
            "primitives" : [
                {
                    "attributes" : {
                        "POSITION" : 12,
                        "NORMAL" : 13,
                        "TEXCOORD_0" : 14
                    },
                    "indices" : 15
                }
            ]
        },
        {
            "name" : "Plane.002",
            "primitives" : [
                {
                    "attributes" : {
                        "POSITION" : 16,
                        "NORMAL" : 17,
                        "TEXCOORD_0" : 18
                    },
                    "indices" : 15
                }
            ]
        },
        {
            "name" : "Plane",
            "primitives" : [
                {
                    "attributes" : {
                        "POSITION" : 19,
                        "NORMAL" : 20,
                        "TEXCOORD_0" : 21
                    },
                    "indices" : 15
                }
            ]
        },
        {
            "name" : "Plane.003",
            "primitives" : [
                {
                    "attributes" : {
                        "POSITION" : 22,
                        "NORMAL" : 23,
                        "TEXCOORD_0" : 24
                    },
                    "indices" : 15
                }
            ]
        }
    ],
    "accessors" : [
        {
            "bufferView" : 0,
            "componentType" : 5126,
            "count" : 24,
            "max" : [
                3.486626148223877,
                1.49808931350708,
                1
            ],
            "min" : [
                -3.486626625061035,
                -0.5019106268882751,
                -1
            ],
            "type" : "VEC3"
        },
        {
            "bufferView" : 1,
            "componentType" : 5126,
            "count" : 24,
            "type" : "VEC3"
        },
        {
            "bufferView" : 2,
            "componentType" : 5126,
            "count" : 24,
            "type" : "VEC2"
        },
        {
            "bufferView" : 3,
            "componentType" : 5123,
            "count" : 36,
            "type" : "SCALAR"
        },
        {
            "bufferView" : 4,
            "componentType" : 5126,
            "count" : 40,
            "max" : [
                1.5959768295288086,
                1.0816539525985718,
                1
            ],
            "min" : [
                -1.6553544998168945,
                -0.9183459877967834,
                -1
            ],
            "type" : "VEC3"
        },
        {
            "bufferView" : 5,
            "componentType" : 5126,
            "count" : 40,
            "type" : "VEC3"
        },
        {
            "bufferView" : 6,
            "componentType" : 5126,
            "count" : 40,
            "type" : "VEC2"
        },
        {
            "bufferView" : 7,
            "componentType" : 5123,
            "count" : 60,
            "type" : "SCALAR"
        },
        {
            "bufferView" : 8,
            "componentType" : 5126,
            "count" : 40,
            "max" : [
                2.5439701080322266,
                1,
                1
            ],
            "min" : [
                -2.006871223449707,
                -1,
                -1
            ],
            "type" : "VEC3"
        },
        {
            "bufferView" : 9,
            "componentType" : 5126,
            "count" : 40,
            "type" : "VEC3"
        },
        {
            "bufferView" : 10,
            "componentType" : 5126,
            "count" : 40,
            "type" : "VEC2"
        },
        {
            "bufferView" : 11,
            "componentType" : 5123,
            "count" : 60,
            "type" : "SCALAR"
        },
        {
            "bufferView" : 12,
            "componentType" : 5126,
            "count" : 56,
            "max" : [
                0.8087524175643921,
                0.2007729411125183,
                0.8931790590286255
            ],
            "min" : [
                -1.3324906826019287,
                -0.10951226949691772,
                -0.8214423656463623
            ],
            "type" : "VEC3"
        },
        {
            "bufferView" : 13,
            "componentType" : 5126,
            "count" : 56,
            "type" : "VEC3"
        },
        {
            "bufferView" : 14,
            "componentType" : 5126,
            "count" : 56,
            "type" : "VEC2"
        },
        {
            "bufferView" : 15,
            "componentType" : 5123,
            "count" : 90,
            "type" : "SCALAR"
        },
        {
            "bufferView" : 16,
            "componentType" : 5126,
            "count" : 56,
            "max" : [
                0.8087524175643921,
                0.2007729411125183,
                0.8931790590286255
            ],
            "min" : [
                -1.3324906826019287,
                -0.10951226949691772,
                -0.8214423656463623
            ],
            "type" : "VEC3"
        },
        {
            "bufferView" : 17,
            "componentType" : 5126,
            "count" : 56,
            "type" : "VEC3"
        },
        {
            "bufferView" : 18,
            "componentType" : 5126,
            "count" : 56,
            "type" : "VEC2"
        },
        {
            "bufferView" : 19,
            "componentType" : 5126,
            "count" : 56,
            "max" : [
                0.8087524175643921,
                0.2007729411125183,
                0.8931790590286255
            ],
            "min" : [
                -1.3324906826019287,
                -0.10951226949691772,
                -0.8214423656463623
            ],
            "type" : "VEC3"
        },
        {
            "bufferView" : 20,
            "componentType" : 5126,
            "count" : 56,
            "type" : "VEC3"
        },
        {
            "bufferView" : 21,
            "componentType" : 5126,
            "count" : 56,
            "type" : "VEC2"
        },
        {
            "bufferView" : 22,
            "componentType" : 5126,
            "count" : 56,
            "max" : [
                0.8087524175643921,
                0.2007729411125183,
                0.8931790590286255
            ],
            "min" : [
                -1.3324906826019287,
                -0.10951226949691772,
                -0.8214423656463623
            ],
            "type" : "VEC3"
        },
        {
            "bufferView" : 23,
            "componentType" : 5126,
            "count" : 56,
            "type" : "VEC3"
        },
        {
            "bufferView" : 24,
            "componentType" : 5126,
            "count" : 56,
            "type" : "VEC2"
        },
        {
            "bufferView" : 25,
            "componentType" : 5126,
            "count" : 120,
            "max" : [
                2
            ],
            "min" : [
                0.016666666666666666
            ],
            "type" : "SCALAR"
        },
        {
            "bufferView" : 26,
            "componentType" : 5126,
            "count" : 120,
            "type" : "VEC3"
        },
        {
            "bufferView" : 27,
            "componentType" : 5126,
            "count" : 120,
            "type" : "VEC3"
        },
        {
            "bufferView" : 28,
            "componentType" : 5126,
            "count" : 120,
            "type" : "VEC3"
        },
        {
            "bufferView" : 29,
            "componentType" : 5126,
            "count" : 120,
            "type" : "VEC3"
        }
    ],
    "bufferViews" : [
        {
            "buffer" : 0,
            "byteLength" : 288,
            "byteOffset" : 0
        },
        {
            "buffer" : 0,
            "byteLength" : 288,
            "byteOffset" : 288
        },
        {
            "buffer" : 0,
            "byteLength" : 192,
            "byteOffset" : 576
        },
        {
            "buffer" : 0,
            "byteLength" : 72,
            "byteOffset" : 768
        },
        {
            "buffer" : 0,
            "byteLength" : 480,
            "byteOffset" : 840
        },
        {
            "buffer" : 0,
            "byteLength" : 480,
            "byteOffset" : 1320
        },
        {
            "buffer" : 0,
            "byteLength" : 320,
            "byteOffset" : 1800
        },
        {
            "buffer" : 0,
            "byteLength" : 120,
            "byteOffset" : 2120
        },
        {
            "buffer" : 0,
            "byteLength" : 480,
            "byteOffset" : 2240
        },
        {
            "buffer" : 0,
            "byteLength" : 480,
            "byteOffset" : 2720
        },
        {
            "buffer" : 0,
            "byteLength" : 320,
            "byteOffset" : 3200
        },
        {
            "buffer" : 0,
            "byteLength" : 120,
            "byteOffset" : 3520
        },
        {
            "buffer" : 0,
            "byteLength" : 672,
            "byteOffset" : 3640
        },
        {
            "buffer" : 0,
            "byteLength" : 672,
            "byteOffset" : 4312
        },
        {
            "buffer" : 0,
            "byteLength" : 448,
            "byteOffset" : 4984
        },
        {
            "buffer" : 0,
            "byteLength" : 180,
            "byteOffset" : 5432
        },
        {
            "buffer" : 0,
            "byteLength" : 672,
            "byteOffset" : 5612
        },
        {
            "buffer" : 0,
            "byteLength" : 672,
            "byteOffset" : 6284
        },
        {
            "buffer" : 0,
            "byteLength" : 448,
            "byteOffset" : 6956
        },
        {
            "buffer" : 0,
            "byteLength" : 672,
            "byteOffset" : 7404
        },
        {
            "buffer" : 0,
            "byteLength" : 672,
            "byteOffset" : 8076
        },
        {
            "buffer" : 0,
            "byteLength" : 448,
            "byteOffset" : 8748
        },
        {
            "buffer" : 0,
            "byteLength" : 672,
            "byteOffset" : 9196
        },
        {
            "buffer" : 0,
            "byteLength" : 672,
            "byteOffset" : 9868
        },
        {
            "buffer" : 0,
            "byteLength" : 448,
            "byteOffset" : 10540
        },
        {
            "buffer" : 0,
            "byteLength" : 480,
            "byteOffset" : 10988
        },
        {
            "buffer" : 0,
            "byteLength" : 1440,
            "byteOffset" : 11468
        },
        {
            "buffer" : 0,
            "byteLength" : 1440,
            "byteOffset" : 12908
        },
        {
            "buffer" : 0,
            "byteLength" : 1440,
            "byteOffset" : 14348
        },
        {
            "buffer" : 0,
            "byteLength" : 1440,
            "byteOffset" : 15788
        }
    ],
    "buffers" : [
        {
            "byteLength" : 17228,
            "uri" : "data:application/octet-stream;base64,"
        }
    ]
}
