{
    "asset" : {
        "generator" : "Khronos glTF Blender I/O v1.6.16",
        "version" : "2.0"
    },
    "scene" : 0,
    "scenes" : [
        {
            "name" : "Scene",
            "nodes" : [
                0,
                1,
                2,
                3,
                4,
                5,
                6
            ]
        }
    ],
    "nodes" : [
        {
            "mesh" : 0,
            "name" : "Body"
        },
        {
            "name" : "Light",
            "rotation" : [
                0.16907575726509094,
                0.7558803558349609,
                -0.27217137813568115,
                0.570947527885437
            ],
            "translation" : [
                4.076245307922363,
                5.903861999511719,
                -1.0054539442062378
            ]
        },
        {
            "name" : "Camera",
            "rotation" : [
                0.483536034822464,
                0.33687159419059753,
                -0.20870360732078552,
                0.7804827094078064
            ],
            "translation" : [
                7.358891487121582,
                4.958309173583984,
                6.925790786743164
            ]
        },
        {
            "mesh" : 1,
            "name" : "Foot-FR",
            "translation" : [
                -4.001046657562256,
                0,
                -2.923213481903076
            ]
        },
        {
            "mesh" : 2,
            "name" : "Foor-FL",
            "translation" : [
                -4.278670310974121,
                0,
                2.8088974952697754
            ]
        },
        {
            "mesh" : 3,
            "name" : "Foot-RL",
            "translation" : [
                3.6744303703308105,
                0,
                2.8415591716766357
            ]
        },
        {
            "mesh" : 4,
            "name" : "Foot-RR",
            "translation" : [
                3.690761089324951,
                0,
                -2.9068825244903564
            ]
        }
    ],
    "materials" : [
        {
            "doubleSided" : true,
            "name" : "Material",
            "pbrMetallicRoughness" : {
                "baseColorFactor" : [
                    0.800000011920929,
                    0.800000011920929,
                    0.800000011920929,
                    1
                ],
                "metallicFactor" : 0,
                "roughnessFactor" : 0.4000000059604645
            }
        }
    ],
    "meshes" : [
        {
            "name" : "Cube",
            "primitives" : [
                {
                    "attributes" : {
                        "POSITION" : 0,
                        "NORMAL" : 1,
                        "TEXCOORD_0" : 2
                    },
                    "indices" : 3,
                    "material" : 0
                }
            ]
        },
        {
            "name" : "Plane",
            "primitives" : [
                {
                    "attributes" : {
                        "POSITION" : 4,
                        "NORMAL" : 5,
                        "TEXCOORD_0" : 6
                    },
                    "indices" : 7
                }
            ]
        },
        {
            "name" : "Plane.001",
            "primitives" : [
                {
                    "attributes" : {
                        "POSITION" : 8,
                        "NORMAL" : 9,
                        "TEXCOORD_0" : 10
                    },
                    "indices" : 7
                }
            ]
        },
        {
            "name" : "Plane.002",
            "primitives" : [
                {
                    "attributes" : {
                        "POSITION" : 11,
                        "NORMAL" : 12,
                        "TEXCOORD_0" : 13
                    },
                    "indices" : 7
                }
            ]
        },
        {
            "name" : "Plane.003",
            "primitives" : [
                {
                    "attributes" : {
                        "POSITION" : 14,
                        "NORMAL" : 15,
                        "TEXCOORD_0" : 16
                    },
                    "indices" : 7
                }
            ]
        }
    ],
    "accessors" : [
        {
            "bufferView" : 0,
            "componentType" : 5126,
            "count" : 88,
            "max" : [
                9.002093315124512,
                1,
                1
            ],
            "min" : [
                -6.601465225219727,
                -1,
                -1
            ],
            "type" : "VEC3"
        },
        {
            "bufferView" : 1,
            "componentType" : 5126,
            "count" : 88,
            "type" : "VEC3"
        },
        {
            "bufferView" : 2,
            "componentType" : 5126,
            "count" : 88,
            "type" : "VEC2"
        },
        {
            "bufferView" : 3,
            "componentType" : 5123,
            "count" : 132,
            "type" : "SCALAR"
        },
        {
            "bufferView" : 4,
            "componentType" : 5126,
            "count" : 56,
            "max" : [
                0.38647907972335815,
                -0.7022242546081543,
                0.9234965443611145
            ],
            "min" : [
                -1.7547640800476074,
                -1.0125094652175903,
                -0.7911248803138733
            ],
            "type" : "VEC3"
        },
        {
            "bufferView" : 5,
            "componentType" : 5126,
            "count" : 56,
            "type" : "VEC3"
        },
        {
            "bufferView" : 6,
            "componentType" : 5126,
            "count" : 56,
            "type" : "VEC2"
        },
        {
            "bufferView" : 7,
            "componentType" : 5123,
            "count" : 90,
            "type" : "SCALAR"
        },
        {
            "bufferView" : 8,
            "componentType" : 5126,
            "count" : 56,
            "max" : [
                0.38647907972335815,
                -0.7022242546081543,
                0.9234965443611145
            ],
            "min" : [
                -1.7547640800476074,
                -1.0125094652175903,
                -0.7911248803138733
            ],
            "type" : "VEC3"
        },
        {
            "bufferView" : 9,
            "componentType" : 5126,
            "count" : 56,
            "type" : "VEC3"
        },
        {
            "bufferView" : 10,
            "componentType" : 5126,
            "count" : 56,
            "type" : "VEC2"
        },
        {
            "bufferView" : 11,
            "componentType" : 5126,
            "count" : 56,
            "max" : [
                0.38647907972335815,
                -0.7022242546081543,
                0.9234965443611145
            ],
            "min" : [
                -1.7547640800476074,
                -1.0125094652175903,
                -0.7911248803138733
            ],
            "type" : "VEC3"
        },
        {
            "bufferView" : 12,
            "componentType" : 5126,
            "count" : 56,
            "type" : "VEC3"
        },
        {
            "bufferView" : 13,
            "componentType" : 5126,
            "count" : 56,
            "type" : "VEC2"
        },
        {
            "bufferView" : 14,
            "componentType" : 5126,
            "count" : 56,
            "max" : [
                0.38647907972335815,
                -0.7022242546081543,
                0.9234965443611145
            ],
            "min" : [
                -1.7547640800476074,
                -1.0125094652175903,
                -0.7911248803138733
            ],
            "type" : "VEC3"
        },
        {
            "bufferView" : 15,
            "componentType" : 5126,
            "count" : 56,
            "type" : "VEC3"
        },
        {
            "bufferView" : 16,
            "componentType" : 5126,
            "count" : 56,
            "type" : "VEC2"
        }
    ],
    "bufferViews" : [
        {
            "buffer" : 0,
            "byteLength" : 1056,
            "byteOffset" : 0
        },
        {
            "buffer" : 0,
            "byteLength" : 1056,
            "byteOffset" : 1056
        },
        {
            "buffer" : 0,
            "byteLength" : 704,
            "byteOffset" : 2112
        },
        {
            "buffer" : 0,
            "byteLength" : 264,
            "byteOffset" : 2816
        },
        {
            "buffer" : 0,
            "byteLength" : 672,
            "byteOffset" : 3080
        },
        {
            "buffer" : 0,
            "byteLength" : 672,
            "byteOffset" : 3752
        },
        {
            "buffer" : 0,
            "byteLength" : 448,
            "byteOffset" : 4424
        },
        {
            "buffer" : 0,
            "byteLength" : 180,
            "byteOffset" : 4872
        },
        {
            "buffer" : 0,
            "byteLength" : 672,
            "byteOffset" : 5052
        },
        {
            "buffer" : 0,
            "byteLength" : 672,
            "byteOffset" : 5724
        },
        {
            "buffer" : 0,
            "byteLength" : 448,
            "byteOffset" : 6396
        },
        {
            "buffer" : 0,
            "byteLength" : 672,
            "byteOffset" : 6844
        },
        {
            "buffer" : 0,
            "byteLength" : 672,
            "byteOffset" : 7516
        },
        {
            "buffer" : 0,
            "byteLength" : 448,
            "byteOffset" : 8188
        },
        {
            "buffer" : 0,
            "byteLength" : 672,
            "byteOffset" : 8636
        },
        {
            "buffer" : 0,
            "byteLength" : 672,
            "byteOffset" : 9308
        },
        {
            "buffer" : 0,
            "byteLength" : 448,
            "byteOffset" : 9980
        }
    ],
    "buffers" : [
        {
            "byteLength" : 10428,
            "uri" : "data:application/octet-stream;base64,"
        }
    ]
}
