{
    "asset" : {
        "generator" : "Khronos glTF Blender I/O v1.6.16",
        "version" : "2.0"
    },
    "scene" : 0,
    "scenes" : [
        {
            "name" : "Scene",
            "nodes" : [
                0,
                1,
                2,
                3,
                4,
                5,
                6,
                7,
                8
            ]
        }
    ],
    "nodes" : [
        {
            "mesh" : 0,
            "name" : "Body",
            "translation" : [
                -1.5861029624938965,
                1.02884042263031,
                -0.00020928680896759033
            ]
        },
        {
            "name" : "Light",
            "rotation" : [
                0.16907575726509094,
                0.7558803558349609,
                -0.27217137813568115,
                0.570947527885437
            ],
            "translation" : [
                2.490142345428467,
                6.932702541351318,
                -1.005663275718689
            ]
        },
        {
            "name" : "Camera",
            "rotation" : [
                0.483536034822464,
                0.33687159419059753,
                -0.20870360732078552,
                0.7804827094078064
            ],
            "translation" : [
                5.7727885246276855,
                5.987149715423584,
                6.925581932067871
            ]
        },
        {
            "mesh" : 1,
            "name" : "Foot-2",
            "translation" : [
                -5.587149620056152,
                1.02884042263031,
                -2.9234230518341064
            ]
        },
        {
            "mesh" : 2,
            "name" : "Foor-1",
            "translation" : [
                -5.864773273468018,
                1.02884042263031,
                2.808687925338745
            ]
        },
        {
            "mesh" : 3,
            "name" : "Foot-0",
            "translation" : [
                2.088327407836914,
                1.02884042263031,
                2.8413498401641846
            ]
        },
        {
            "mesh" : 4,
            "name" : "Foot-3",
            "translation" : [
                2.1046581268310547,
                1.02884042263031,
                -2.9070918560028076
            ]
        },
        {
            "mesh" : 5,
            "name" : "Tail",
            "translation" : [
                -1.5861029624938965,
                1.02884042263031,
                -0.00020928680896759033
            ]
        },
        {
            "mesh" : 6,
            "name" : "Head",
            "translation" : [
                -1.5861029624938965,
                1.02884042263031,
                -0.00020928680896759033
            ]
        }
    ],
    "materials" : [
        {
            "doubleSided" : true,
            "name" : "Material",
            "pbrMetallicRoughness" : {
                "baseColorFactor" : [
                    0.800000011920929,
                    0.800000011920929,
                    0.800000011920929,
                    1
                ],
                "metallicFactor" : 0,
                "roughnessFactor" : 0.4000000059604645
            }
        }
    ],
    "meshes" : [
        {
            "name" : "Cube",
            "primitives" : [
                {
                    "attributes" : {
                        "POSITION" : 0,
                        "NORMAL" : 1,
                        "TEXCOORD_0" : 2
                    },
                    "indices" : 3,
                    "material" : 0
                }
            ]
        },
        {
            "name" : "Plane",
            "primitives" : [
                {
                    "attributes" : {
                        "POSITION" : 4,
                        "NORMAL" : 5,
                        "TEXCOORD_0" : 6
                    },
                    "indices" : 7
                }
            ]
        },
        {
            "name" : "Plane.001",
            "primitives" : [
                {
                    "attributes" : {
                        "POSITION" : 8,
                        "NORMAL" : 9,
                        "TEXCOORD_0" : 10
                    },
                    "indices" : 7
                }
            ]
        },
        {
            "name" : "Plane.002",
            "primitives" : [
                {
                    "attributes" : {
                        "POSITION" : 11,
                        "NORMAL" : 12,
                        "TEXCOORD_0" : 13
                    },
                    "indices" : 7
                }
            ]
        },
        {
            "name" : "Plane.003",
            "primitives" : [
                {
                    "attributes" : {
                        "POSITION" : 14,
                        "NORMAL" : 15,
                        "TEXCOORD_0" : 16
                    },
                    "indices" : 7
                }
            ]
        },
        {
            "name" : "Cube.002",
            "primitives" : [
                {
                    "attributes" : {
                        "POSITION" : 17,
                        "NORMAL" : 18,
                        "TEXCOORD_0" : 19
                    },
                    "indices" : 20,
                    "material" : 0
                }
            ]
        },
        {
            "name" : "Cube.003",
            "primitives" : [
                {
                    "attributes" : {
                        "POSITION" : 21,
                        "NORMAL" : 22,
                        "TEXCOORD_0" : 23
                    },
                    "indices" : 24,
                    "material" : 0
                }
            ]
        }
    ],
    "accessors" : [
        {
            "bufferView" : 0,
            "componentType" : 5126,
            "count" : 36,
            "max" : [
                1.5748144388198853,
                1,
                1
            ],
            "min" : [
                -2.976027011871338,
                -1,
                -1
            ],
            "type" : "VEC3"
        },
        {
            "bufferView" : 1,
            "componentType" : 5126,
            "count" : 36,
            "type" : "VEC3"
        },
        {
            "bufferView" : 2,
            "componentType" : 5126,
            "count" : 36,
            "type" : "VEC2"
        },
        {
            "bufferView" : 3,
            "componentType" : 5123,
            "count" : 54,
            "type" : "SCALAR"
        },
        {
            "bufferView" : 4,
            "componentType" : 5126,
            "count" : 56,
            "max" : [
                0.38647907972335815,
                -0.7022242546081543,
                0.9234965443611145
            ],
            "min" : [
                -1.7547640800476074,
                -1.0125094652175903,
                -0.7911248803138733
            ],
            "type" : "VEC3"
        },
        {
            "bufferView" : 5,
            "componentType" : 5126,
            "count" : 56,
            "type" : "VEC3"
        },
        {
            "bufferView" : 6,
            "componentType" : 5126,
            "count" : 56,
            "type" : "VEC2"
        },
        {
            "bufferView" : 7,
            "componentType" : 5123,
            "count" : 90,
            "type" : "SCALAR"
        },
        {
            "bufferView" : 8,
            "componentType" : 5126,
            "count" : 56,
            "max" : [
                0.38647907972335815,
                -0.7022242546081543,
                0.9234965443611145
            ],
            "min" : [
                -1.7547640800476074,
                -1.0125094652175903,
                -0.7911248803138733
            ],
            "type" : "VEC3"
        },
        {
            "bufferView" : 9,
            "componentType" : 5126,
            "count" : 56,
            "type" : "VEC3"
        },
        {
            "bufferView" : 10,
            "componentType" : 5126,
            "count" : 56,
            "type" : "VEC2"
        },
        {
            "bufferView" : 11,
            "componentType" : 5126,
            "count" : 56,
            "max" : [
                0.38647907972335815,
                -0.7022242546081543,
                0.9234965443611145
            ],
            "min" : [
                -1.7547640800476074,
                -1.0125094652175903,
                -0.7911248803138733
            ],
            "type" : "VEC3"
        },
        {
            "bufferView" : 12,
            "componentType" : 5126,
            "count" : 56,
            "type" : "VEC3"
        },
        {
            "bufferView" : 13,
            "componentType" : 5126,
            "count" : 56,
            "type" : "VEC2"
        },
        {
            "bufferView" : 14,
            "componentType" : 5126,
            "count" : 56,
            "max" : [
                0.38647907972335815,
                -0.7022242546081543,
                0.9234965443611145
            ],
            "min" : [
                -1.7547640800476074,
                -1.0125094652175903,
                -0.7911248803138733
            ],
            "type" : "VEC3"
        },
        {
            "bufferView" : 15,
            "componentType" : 5126,
            "count" : 56,
            "type" : "VEC3"
        },
        {
            "bufferView" : 16,
            "componentType" : 5126,
            "count" : 56,
            "type" : "VEC2"
        },
        {
            "bufferView" : 17,
            "componentType" : 5126,
            "count" : 24,
            "max" : [
                9.002093315124512,
                1,
                1
            ],
            "min" : [
                2.0288405418395996,
                -1,
                -1
            ],
            "type" : "VEC3"
        },
        {
            "bufferView" : 18,
            "componentType" : 5126,
            "count" : 24,
            "type" : "VEC3"
        },
        {
            "bufferView" : 19,
            "componentType" : 5126,
            "count" : 24,
            "type" : "VEC2"
        },
        {
            "bufferView" : 20,
            "componentType" : 5123,
            "count" : 36,
            "type" : "SCALAR"
        },
        {
            "bufferView" : 21,
            "componentType" : 5126,
            "count" : 36,
            "max" : [
                -3.3501338958740234,
                1,
                1
            ],
            "min" : [
                -6.601465225219727,
                -1,
                -1
            ],
            "type" : "VEC3"
        },
        {
            "bufferView" : 22,
            "componentType" : 5126,
            "count" : 36,
            "type" : "VEC3"
        },
        {
            "bufferView" : 23,
            "componentType" : 5126,
            "count" : 36,
            "type" : "VEC2"
        },
        {
            "bufferView" : 24,
            "componentType" : 5123,
            "count" : 54,
            "type" : "SCALAR"
        }
    ],
    "bufferViews" : [
        {
            "buffer" : 0,
            "byteLength" : 432,
            "byteOffset" : 0
        },
        {
            "buffer" : 0,
            "byteLength" : 432,
            "byteOffset" : 432
        },
        {
            "buffer" : 0,
            "byteLength" : 288,
            "byteOffset" : 864
        },
        {
            "buffer" : 0,
            "byteLength" : 108,
            "byteOffset" : 1152
        },
        {
            "buffer" : 0,
            "byteLength" : 672,
            "byteOffset" : 1260
        },
        {
            "buffer" : 0,
            "byteLength" : 672,
            "byteOffset" : 1932
        },
        {
            "buffer" : 0,
            "byteLength" : 448,
            "byteOffset" : 2604
        },
        {
            "buffer" : 0,
            "byteLength" : 180,
            "byteOffset" : 3052
        },
        {
            "buffer" : 0,
            "byteLength" : 672,
            "byteOffset" : 3232
        },
        {
            "buffer" : 0,
            "byteLength" : 672,
            "byteOffset" : 3904
        },
        {
            "buffer" : 0,
            "byteLength" : 448,
            "byteOffset" : 4576
        },
        {
            "buffer" : 0,
            "byteLength" : 672,
            "byteOffset" : 5024
        },
        {
            "buffer" : 0,
            "byteLength" : 672,
            "byteOffset" : 5696
        },
        {
            "buffer" : 0,
            "byteLength" : 448,
            "byteOffset" : 6368
        },
        {
            "buffer" : 0,
            "byteLength" : 672,
            "byteOffset" : 6816
        },
        {
            "buffer" : 0,
            "byteLength" : 672,
            "byteOffset" : 7488
        },
        {
            "buffer" : 0,
            "byteLength" : 448,
            "byteOffset" : 8160
        },
        {
            "buffer" : 0,
            "byteLength" : 288,
            "byteOffset" : 8608
        },
        {
            "buffer" : 0,
            "byteLength" : 288,
            "byteOffset" : 8896
        },
        {
            "buffer" : 0,
            "byteLength" : 192,
            "byteOffset" : 9184
        },
        {
            "buffer" : 0,
            "byteLength" : 72,
            "byteOffset" : 9376
        },
        {
            "buffer" : 0,
            "byteLength" : 432,
            "byteOffset" : 9448
        },
        {
            "buffer" : 0,
            "byteLength" : 432,
            "byteOffset" : 9880
        },
        {
            "buffer" : 0,
            "byteLength" : 288,
            "byteOffset" : 10312
        },
        {
            "buffer" : 0,
            "byteLength" : 108,
            "byteOffset" : 10600
        }
    ],
    "buffers" : [
        {
            "byteLength" : 10708,
            "uri" : "data:application/octet-stream;base64,"
        }
    ]
}
