# Blender v2.93.4 OBJ File: 'lizard.blend'
# www.blender.org
mtllib lizard.mtl
o Body_Cube
v -0.619862 0.402673 -0.196328
v -0.619862 0.002673 -0.196328
v -0.619862 0.402673 0.203672
v -0.619862 0.002673 0.203672
v -0.913816 0.350533 -0.144188
v -0.913816 0.054813 -0.144188
v -0.913816 0.350533 0.151532
v -0.913816 0.054813 0.151532
v -0.003648 0.002673 -0.196328
v -0.003648 0.402673 0.203672
v -0.003648 0.002673 0.203672
v -0.003648 0.402673 -0.196328
vt 0.875000 0.500000
vt 0.657108 0.750000
vt 0.657108 0.500000
vt 0.625000 0.782108
vt 0.375000 1.000000
vt 0.375000 0.782108
vt 0.375000 0.250000
vt 0.625000 0.250000
vt 0.625000 0.250000
vt 0.342892 0.750000
vt 0.342892 0.500000
vt 0.625000 1.000000
vt 0.375000 1.000000
vt 0.125000 0.750000
vt 0.125000 0.500000
vt 0.125000 0.500000
vt 0.875000 0.750000
vt 0.875000 0.750000
vt 0.375000 0.467892
vt 0.375000 0.250000
vt 0.625000 1.000000
vt 0.125000 0.750000
vt 0.875000 0.500000
vt 0.625000 0.467892
vn 0.0000 1.0000 0.0000
vn 0.0000 0.0000 1.0000
vn -0.1746 0.0000 -0.9846
vn 1.0000 0.0000 0.0000
vn -0.1746 0.0000 0.9846
vn -0.1746 -0.9846 0.0000
vn -0.1746 0.9846 0.0000
vn 0.0000 0.0000 -1.0000
vn 0.0000 -1.0000 0.0000
usemtl Material
s off
f 1/1/1 10/2/1 12/3/1
f 10/4/2 4/5/2 11/6/2
f 2/7/3 5/8/3 1/9/3
f 12/3/4 11/10/4 9/11/4
f 3/12/5 8/13/5 4/5/5
f 4/14/6 6/15/6 2/16/6
f 1/1/7 7/17/7 3/18/7
f 1/9/8 9/19/8 2/7/8
f 9/11/9 4/14/9 2/16/9
f 1/1/1 3/18/1 10/2/1
f 10/4/2 3/12/2 4/5/2
f 2/7/3 6/20/3 5/8/3
f 12/3/4 10/4/4 11/10/4
f 3/12/5 7/21/5 8/13/5
f 4/14/6 8/22/6 6/15/6
f 1/1/7 5/23/7 7/17/7
f 1/9/8 12/24/8 9/19/8
f 9/11/9 11/10/9 4/14/9
o Foot-2_Plane
v -1.164454 0.000171 -0.494375
v -1.041524 0.000171 -0.485510
v -1.253102 0.000171 -0.739196
v -1.045957 0.000171 -0.650547
v -1.175016 0.000171 -0.662218
v -1.367827 0.000171 -0.691028
v -1.203827 0.000171 -0.606812
v -1.469773 0.000171 -0.573569
v -1.201611 0.000171 -0.546974
v -1.387773 0.000171 -0.480488
v -1.312421 0.000171 -0.396271
v -1.164454 0.062228 -0.494375
v -1.041524 0.062228 -0.485510
v -1.045957 0.062228 -0.650547
v -1.175016 0.062228 -0.662218
v -1.203827 0.062228 -0.606812
v -1.201611 0.062228 -0.546974
vt 0.000000 0.000000
vt 0.000000 0.000000
vt 0.000000 0.000000
vt 0.000000 0.000000
vt 0.000000 0.000000
vt 0.000000 0.000000
vt 0.000000 0.000000
vt 0.000000 0.000000
vt 0.000000 0.000000
vt 0.000000 0.000000
vt 0.000000 0.000000
vt 0.000000 0.000000
vt 0.000000 0.000000
vt 0.000000 0.000000
vt 0.000000 0.000000
vt 0.000000 0.000000
vt 0.000000 0.000000
vn -0.1240 0.0000 -0.9923
vn -0.7020 0.0000 0.7121
vn -0.3129 0.0000 -0.9498
vn -0.0987 0.0000 0.9951
vn 0.1478 0.0000 -0.9890
vn 0.9996 0.0000 -0.0268
vn -0.3363 0.0000 -0.9417
vn -0.4568 0.0000 0.8896
vn 0.3934 0.0000 -0.9194
vn -0.0621 0.0000 -0.9981
vn -0.5526 0.0000 -0.8335
vn 0.0000 -1.0000 0.0000
vn 0.0000 1.0000 0.0000
vn -0.0357 0.8680 0.4952
vn 0.0599 0.7466 -0.6626
vn -0.2830 0.9477 -0.1472
vn -0.2262 0.9740 0.0084
vn -0.2531 0.9508 0.1788
usemtl None
s off
f 19/25/10 20/26/10 28/27/10
f 15/28/11 17/29/11 27/30/11
f 14/31/12 23/32/12 25/33/12
f 20/26/13 21/34/13 29/35/13
f 17/29/14 18/36/14 27/30/14
f 16/37/15 25/33/15 14/31/15
f 21/34/16 22/38/16 29/35/16
f 18/36/17 19/25/17 28/27/17
f 16/37/18 15/28/18 26/39/18
f 13/40/19 22/38/19 24/41/19
f 13/40/20 23/32/20 24/41/20
f 16/37/21 14/31/21 13/40/21
f 29/35/22 24/41/22 26/39/22
f 16/37/15 26/39/15 25/33/15
f 13/40/21 22/38/21 21/34/21
f 21/34/21 20/26/21 19/25/21
f 19/25/21 18/36/21 17/29/21
f 17/29/21 15/28/21 16/37/21
f 14/31/21 23/32/21 13/40/21
f 13/40/21 21/34/21 16/37/21
f 21/34/21 19/25/21 16/37/21
f 19/25/21 17/29/21 16/37/21
f 24/41/23 23/32/23 25/33/23
f 26/39/24 15/28/24 27/30/24
f 27/30/25 18/36/25 28/27/25
f 28/27/26 20/26/26 29/35/26
f 29/35/27 22/38/27 24/41/27
f 24/41/22 25/33/22 26/39/22
f 26/39/22 27/30/22 28/27/22
f 28/27/22 29/35/22 26/39/22
o Foor-1_Plane.001
v -1.219978 0.000171 0.652048
v -1.097049 0.000171 0.660912
v -1.308627 0.000171 0.407226
v -1.101481 0.000171 0.495875
v -1.230540 0.000171 0.484205
v -1.423351 0.000171 0.455394
v -1.259351 0.000171 0.539610
v -1.525297 0.000171 0.572853
v -1.257135 0.000171 0.599448
v -1.443297 0.000171 0.665934
v -1.367946 0.000171 0.750151
v -1.219978 0.062228 0.652048
v -1.097049 0.062228 0.660912
v -1.101481 0.062228 0.495875
v -1.230540 0.062228 0.484205
v -1.259351 0.062228 0.539610
v -1.257135 0.062228 0.599448
vt 0.000000 0.000000
vt 0.000000 0.000000
vt 0.000000 0.000000
vt 0.000000 0.000000
vt 0.000000 0.000000
vt 0.000000 0.000000
vt 0.000000 0.000000
vt 0.000000 0.000000
vt 0.000000 0.000000
vt 0.000000 0.000000
vt 0.000000 0.000000
vt 0.000000 0.000000
vt 0.000000 0.000000
vt 0.000000 0.000000
vt 0.000000 0.000000
vt 0.000000 0.000000
vt 0.000000 0.000000
vn -0.1240 0.0000 -0.9923
vn -0.7020 0.0000 0.7121
vn -0.3129 0.0000 -0.9498
vn -0.0987 0.0000 0.9951
vn 0.1478 0.0000 -0.9890
vn 0.9996 0.0000 -0.0268
vn -0.3363 0.0000 -0.9417
vn -0.4568 0.0000 0.8896
vn 0.3934 0.0000 -0.9194
vn -0.0621 0.0000 -0.9981
vn -0.5526 0.0000 -0.8335
vn 0.0000 -1.0000 0.0000
vn 0.0000 1.0000 0.0000
vn -0.0357 0.8680 0.4952
vn 0.0599 0.7466 -0.6626
vn -0.2830 0.9477 -0.1472
vn -0.2262 0.9740 0.0084
vn -0.2531 0.9508 0.1788
usemtl None
s off
f 36/42/28 37/43/28 45/44/28
f 32/45/29 34/46/29 44/47/29
f 31/48/30 40/49/30 42/50/30
f 37/43/31 38/51/31 46/52/31
f 34/46/32 35/53/32 44/47/32
f 33/54/33 42/50/33 31/48/33
f 38/51/34 39/55/34 46/52/34
f 35/53/35 36/42/35 45/44/35
f 33/54/36 32/45/36 43/56/36
f 30/57/37 39/55/37 41/58/37
f 30/57/38 40/49/38 41/58/38
f 33/54/39 31/48/39 30/57/39
f 46/52/40 41/58/40 43/56/40
f 33/54/33 43/56/33 42/50/33
f 30/57/39 39/55/39 38/51/39
f 38/51/39 37/43/39 36/42/39
f 36/42/39 35/53/39 34/46/39
f 34/46/39 32/45/39 33/54/39
f 31/48/39 40/49/39 30/57/39
f 30/57/39 38/51/39 33/54/39
f 38/51/39 36/42/39 33/54/39
f 36/42/39 34/46/39 33/54/39
f 41/58/41 40/49/41 42/50/41
f 43/56/42 32/45/42 44/47/42
f 44/47/43 35/53/43 45/44/43
f 45/44/44 37/43/44 46/52/44
f 46/52/45 39/55/45 41/58/45
f 41/58/40 42/50/40 43/56/40
f 43/56/40 44/47/40 45/44/40
f 45/44/40 46/52/40 43/56/40
o Foot-0_Plane.002
v 0.370642 0.000171 0.658580
v 0.493571 0.000171 0.667445
v 0.281994 0.000171 0.413759
v 0.489139 0.000171 0.502408
v 0.360080 0.000171 0.490737
v 0.167269 0.000171 0.461926
v 0.331269 0.000171 0.546142
v 0.065323 0.000171 0.579386
v 0.333485 0.000171 0.605980
v 0.147323 0.000171 0.672467
v 0.222674 0.000171 0.756683
v 0.370642 0.062228 0.658580
v 0.493571 0.062228 0.667445
v 0.489139 0.062228 0.502408
v 0.360080 0.062228 0.490737
v 0.331269 0.062228 0.546142
v 0.333485 0.062228 0.605980
vt 0.000000 0.000000
vt 0.000000 0.000000
vt 0.000000 0.000000
vt 0.000000 0.000000
vt 0.000000 0.000000
vt 0.000000 0.000000
vt 0.000000 0.000000
vt 0.000000 0.000000
vt 0.000000 0.000000
vt 0.000000 0.000000
vt 0.000000 0.000000
vt 0.000000 0.000000
vt 0.000000 0.000000
vt 0.000000 0.000000
vt 0.000000 0.000000
vt 0.000000 0.000000
vt 0.000000 0.000000
vn -0.1240 0.0000 -0.9923
vn -0.7020 0.0000 0.7121
vn -0.3129 0.0000 -0.9498
vn -0.0987 0.0000 0.9951
vn 0.1478 0.0000 -0.9890
vn 0.9996 0.0000 -0.0268
vn -0.3363 0.0000 -0.9417
vn -0.4568 0.0000 0.8896
vn 0.3934 0.0000 -0.9194
vn -0.0621 0.0000 -0.9981
vn -0.5526 0.0000 -0.8335
vn 0.0000 -1.0000 0.0000
vn 0.0000 1.0000 0.0000
vn -0.0357 0.8680 0.4952
vn 0.0599 0.7466 -0.6626
vn -0.2830 0.9477 -0.1472
vn -0.2262 0.9740 0.0084
vn -0.2531 0.9508 0.1788
usemtl None
s off
f 53/59/46 54/60/46 62/61/46
f 49/62/47 51/63/47 61/64/47
f 48/65/48 57/66/48 59/67/48
f 54/60/49 55/68/49 63/69/49
f 51/63/50 52/70/50 61/64/50
f 50/71/51 59/67/51 48/65/51
f 55/68/52 56/72/52 63/69/52
f 52/70/53 53/59/53 62/61/53
f 50/71/54 49/62/54 60/73/54
f 47/74/55 56/72/55 58/75/55
f 47/74/56 57/66/56 58/75/56
f 50/71/57 48/65/57 47/74/57
f 63/69/58 58/75/58 60/73/58
f 50/71/51 60/73/51 59/67/51
f 47/74/57 56/72/57 55/68/57
f 55/68/57 54/60/57 53/59/57
f 53/59/57 52/70/57 51/63/57
f 51/63/57 49/62/57 50/71/57
f 48/65/57 57/66/57 47/74/57
f 47/74/57 55/68/57 50/71/57
f 55/68/57 53/59/57 50/71/57
f 53/59/57 51/63/57 50/71/57
f 58/75/59 57/66/59 59/67/59
f 60/73/60 49/62/60 61/64/60
f 61/64/61 52/70/61 62/61/61
f 62/61/62 54/60/62 63/69/62
f 63/69/63 56/72/63 58/75/63
f 58/75/58 59/67/58 60/73/58
f 60/73/58 61/64/58 62/61/58
f 62/61/58 63/69/58 60/73/58
o Foot-3_Plane.003
v 0.373908 0.000171 -0.491108
v 0.496837 0.000171 -0.482244
v 0.285260 0.000171 -0.735930
v 0.492405 0.000171 -0.647281
v 0.363346 0.000171 -0.658951
v 0.170535 0.000171 -0.687762
v 0.334535 0.000171 -0.603546
v 0.068589 0.000171 -0.570303
v 0.336751 0.000171 -0.543708
v 0.150589 0.000171 -0.477222
v 0.225940 0.000171 -0.393005
v 0.373908 0.062228 -0.491108
v 0.496837 0.062228 -0.482244
v 0.492405 0.062228 -0.647281
v 0.363346 0.062228 -0.658951
v 0.334535 0.062228 -0.603546
v 0.336751 0.062228 -0.543708
vt 0.000000 0.000000
vt 0.000000 0.000000
vt 0.000000 0.000000
vt 0.000000 0.000000
vt 0.000000 0.000000
vt 0.000000 0.000000
vt 0.000000 0.000000
vt 0.000000 0.000000
vt 0.000000 0.000000
vt 0.000000 0.000000
vt 0.000000 0.000000
vt 0.000000 0.000000
vt 0.000000 0.000000
vt 0.000000 0.000000
vt 0.000000 0.000000
vt 0.000000 0.000000
vt 0.000000 0.000000
vn -0.1240 0.0000 -0.9923
vn -0.7020 0.0000 0.7121
vn -0.3129 0.0000 -0.9498
vn -0.0987 0.0000 0.9951
vn 0.1478 0.0000 -0.9890
vn 0.9996 0.0000 -0.0268
vn -0.3363 0.0000 -0.9417
vn -0.4568 0.0000 0.8896
vn 0.3934 0.0000 -0.9194
vn -0.0621 0.0000 -0.9981
vn -0.5526 0.0000 -0.8335
vn 0.0000 -1.0000 0.0000
vn 0.0000 1.0000 0.0000
vn -0.0357 0.8680 0.4952
vn 0.0599 0.7466 -0.6626
vn -0.2830 0.9477 -0.1472
vn -0.2262 0.9740 0.0084
vn -0.2531 0.9508 0.1788
usemtl None
s off
f 70/76/64 71/77/64 79/78/64
f 66/79/65 68/80/65 78/81/65
f 65/82/66 74/83/66 76/84/66
f 71/77/67 72/85/67 80/86/67
f 68/80/68 69/87/68 78/81/68
f 67/88/69 76/84/69 65/82/69
f 72/85/70 73/89/70 80/86/70
f 69/87/71 70/76/71 79/78/71
f 67/88/72 66/79/72 77/90/72
f 64/91/73 73/89/73 75/92/73
f 64/91/74 74/83/74 75/92/74
f 67/88/75 65/82/75 64/91/75
f 80/86/76 75/92/76 77/90/76
f 67/88/69 77/90/69 76/84/69
f 64/91/75 73/89/75 72/85/75
f 72/85/75 71/77/75 70/76/75
f 70/76/75 69/87/75 68/80/75
f 68/80/75 66/79/75 67/88/75
f 65/82/75 74/83/75 64/91/75
f 64/91/75 72/85/75 67/88/75
f 72/85/75 70/76/75 67/88/75
f 70/76/75 68/80/75 67/88/75
f 75/92/77 74/83/77 76/84/77
f 77/90/78 66/79/78 78/81/78
f 78/81/79 69/87/79 79/78/79
f 79/78/80 71/77/80 80/86/80
f 80/86/81 73/89/81 75/92/81
f 75/92/76 76/84/76 77/90/76
f 77/90/76 78/81/76 79/78/76
f 79/78/76 80/86/76 77/90/76
o Tail_Cube.002
v 0.087157 0.402673 -0.196328
v 0.087157 0.002673 -0.196328
v 0.087157 0.402673 0.203672
v 0.087157 0.002673 0.203672
v 1.481808 0.003437 0.003672
v 1.481808 0.003437 0.003672
v 1.481808 0.003437 0.003672
v 1.481808 0.003437 0.003672
vt 0.625000 0.500000
vt 0.625000 0.750000
vt 0.625000 0.500000
vt 0.375000 0.500000
vt 0.375000 0.750000
vt 0.625000 0.750000
vt 0.375000 0.500000
vt 0.375000 0.750000
vn 0.0000 0.0000 1.0000
vn -1.0000 0.0000 0.0000
vn 0.2752 0.9614 0.0000
vn 0.1420 0.0000 0.9899
vn 0.1420 0.0000 -0.9899
vn 0.0005 -1.0000 0.0000
usemtl Material
s off
f 81/93/82 87/94/82 85/95/82
f 86/96/82 87/94/82 88/97/82
f 83/98/82 88/97/82 87/94/82
f 82/99/82 85/95/82 86/96/82
f 84/100/82 86/96/82 88/97/82
f 84/100/83 81/93/83 82/99/83
f 81/93/84 83/98/84 87/94/84
f 86/96/82 85/95/82 87/94/82
f 83/98/85 84/100/85 88/97/85
f 82/99/86 81/93/86 85/95/86
f 84/100/87 82/99/87 86/96/87
f 84/100/83 83/98/83 81/93/83
o Head_Cube.003
v -1.295957 0.402673 -0.196328
v -1.295957 0.002673 -0.196328
v -1.295957 0.402673 0.203672
v -1.295957 0.002673 0.203672
v -1.638904 0.263564 -0.106211
v -1.638904 0.043797 -0.106211
v -1.638904 0.263564 0.113555
v -1.638904 0.043797 0.113555
v -0.988637 0.044604 -0.154397
v -0.988637 0.360742 -0.154397
v -0.988637 0.044604 0.161741
v -0.988637 0.360742 0.161741
vt 0.625000 0.250000
vt 0.375000 0.250000
vt 0.625000 0.250000
vt 0.875000 0.500000
vt 0.875000 0.750000
vt 0.875000 0.750000
vt 0.125000 0.500000
vt 0.125000 0.750000
vt 0.125000 0.500000
vt 0.875000 0.750000
vt 0.375000 1.000000
vt 0.625000 1.000000
vt 0.375000 1.000000
vt 0.625000 0.000000
vt 0.375000 0.250000
vt 0.375000 0.000000
vt 0.625000 1.000000
vt 0.375000 1.000000
vt 0.625000 0.250000
vt 0.125000 0.500000
vt 0.375000 0.250000
vt 0.875000 0.500000
vt 0.125000 0.750000
vt 0.875000 0.500000
vt 0.625000 1.000000
vt 0.125000 0.750000
vn 0.1352 0.0000 -0.9908
vn -0.3759 0.9267 0.0000
vn 0.1352 -0.9908 0.0000
vn 0.1352 0.9908 0.0000
vn 0.1352 0.0000 0.9908
vn -1.0000 0.0000 0.0000
vn -0.2541 0.0000 0.9672
vn -0.2541 0.0000 -0.9672
vn -0.1191 -0.9929 0.0000
usemtl Material
s off
f 98/101/88 90/102/88 89/103/88
f 89/104/89 95/105/89 91/106/89
f 97/107/90 92/108/90 90/109/90
f 100/110/91 89/104/91 91/106/91
f 99/111/92 91/112/92 92/113/92
f 95/114/93 94/115/93 96/116/93
f 92/113/94 95/117/94 96/118/94
f 90/102/95 93/119/95 89/103/95
f 92/108/96 94/120/96 90/109/96
f 98/101/88 97/121/88 90/102/88
f 89/104/89 93/122/89 95/105/89
f 97/107/90 99/123/90 92/108/90
f 100/110/91 98/124/91 89/104/91
f 99/111/92 100/125/92 91/112/92
f 95/114/93 93/119/93 94/115/93
f 92/113/94 91/112/94 95/117/94
f 90/102/95 94/115/95 93/119/95
f 92/108/96 96/126/96 94/120/96
