{
    "asset" : {
        "generator" : "Khronos glTF Blender I/O v1.6.16",
        "version" : "2.0"
    },
    "scene" : 0,
    "scenes" : [
        {
            "name" : "Scene",
            "nodes" : [
                0,
                1,
                2,
                3,
                4,
                5
            ]
        }
    ],
    "nodes" : [
        {
            "mesh" : 0,
            "name" : "C Wall",
            "rotation" : [
                0,
                0.7071067690849304,
                0,
                0.7071068286895752
            ],
            "translation" : [
                0.006619751453399658,
                1.0000001192092896,
                -0.7730636596679688
            ]
        },
        {
            "name" : "Light",
            "rotation" : [
                0.16907575726509094,
                0.7558803558349609,
                -0.27217137813568115,
                0.570947527885437
            ],
            "translation" : [
                5.076245307922363,
                5.903861999511719,
                -0.5054539442062378
            ]
        },
        {
            "name" : "Camera",
            "rotation" : [
                0.1943359225988388,
                0.7900887727737427,
                -0.48948732018470764,
                0.313680499792099
            ],
            "translation" : [
                7.432412147521973,
                4.958309173583984,
                -8.681955337524414
            ]
        },
        {
            "mesh" : 1,
            "name" : "Long Wall",
            "rotation" : [
                0,
                0.7071067690849304,
                0,
                0.7071068286895752
            ],
            "translation" : [
                0.006620228290557861,
                1,
                1.626936435699463
            ]
        },
        {
            "mesh" : 2,
            "name" : "Floor",
            "rotation" : [
                0,
                0.7071067690849304,
                0,
                0.7071068286895752
            ],
            "translation" : [
                0.0066201090812683105,
                -0.04999995231628418,
                0.1269364356994629
            ]
        },
        {
            "mesh" : 3,
            "name" : "Ceiling",
            "rotation" : [
                0,
                0.7071067690849304,
                0,
                0.7071068286895752
            ],
            "translation" : [
                0.006620347499847412,
                4.050000190734863,
                0.1269364356994629
            ]
        }
    ],
    "materials" : [
        {
            "doubleSided" : true,
            "name" : "Material",
            "pbrMetallicRoughness" : {
                "baseColorTexture" : {
                    "index" : 0
                },
                "metallicFactor" : 0,
                "roughnessFactor" : 0.4000000059604645
            }
        },
        {
            "doubleSided" : true,
            "name" : "Material.002",
            "pbrMetallicRoughness" : {
                "baseColorTexture" : {
                    "index" : 1
                },
                "metallicFactor" : 0,
                "roughnessFactor" : 0.5
            }
        },
        {
            "doubleSided" : true,
            "name" : "Material.001",
            "pbrMetallicRoughness" : {
                "baseColorTexture" : {
                    "index" : 2
                },
                "metallicFactor" : 0,
                "roughnessFactor" : 0.5
            }
        }
    ],
    "meshes" : [
        {
            "name" : "Cube",
            "primitives" : [
                {
                    "attributes" : {
                        "POSITION" : 0,
                        "NORMAL" : 1,
                        "TEXCOORD_0" : 2
                    },
                    "indices" : 3,
                    "material" : 0
                }
            ]
        },
        {
            "name" : "Cube.001",
            "primitives" : [
                {
                    "attributes" : {
                        "POSITION" : 4,
                        "NORMAL" : 5,
                        "TEXCOORD_0" : 6
                    },
                    "indices" : 7,
                    "material" : 1
                }
            ]
        },
        {
            "name" : "Cube.002",
            "primitives" : [
                {
                    "attributes" : {
                        "POSITION" : 8,
                        "NORMAL" : 9,
                        "TEXCOORD_0" : 10
                    },
                    "indices" : 11,
                    "material" : 2
                }
            ]
        },
        {
            "name" : "Cube.003",
            "primitives" : [
                {
                    "attributes" : {
                        "POSITION" : 12,
                        "NORMAL" : 13,
                        "TEXCOORD_0" : 14
                    },
                    "indices" : 11
                }
            ]
        }
    ],
    "textures" : [
        {
            "sampler" : 0,
            "source" : 0
        },
        {
            "sampler" : 0,
            "source" : 1
        },
        {
            "sampler" : 0,
            "source" : 2
        }
    ],
    "images" : [
        {
            "bufferView" : 4,
            "mimeType" : "image/jpeg",
            "name" : "wall"
        },
        {
            "bufferView" : 9,
            "mimeType" : "image/jpeg",
            "name" : "factory-wall"
        },
        {
            "bufferView" : 14,
            "mimeType" : "image/jpeg",
            "name" : "cement"
        }
    ],
    "accessors" : [
        {
            "bufferView" : 0,
            "componentType" : 5126,
            "count" : 104,
            "max" : [
                0.6269364356994629,
                0.9999998807907104,
                1.4933804273605347
            ],
            "min" : [
                -1.4730638265609741,
                -1.0000001192092896,
                -1.5066196918487549
            ],
            "type" : "VEC3"
        },
        {
            "bufferView" : 1,
            "componentType" : 5126,
            "count" : 104,
            "type" : "VEC3"
        },
        {
            "bufferView" : 2,
            "componentType" : 5126,
            "count" : 104,
            "type" : "VEC2"
        },
        {
            "bufferView" : 3,
            "componentType" : 5123,
            "count" : 192,
            "type" : "SCALAR"
        },
        {
            "bufferView" : 5,
            "componentType" : 5126,
            "count" : 52,
            "max" : [
                3.0269367694854736,
                1,
                3.493379831314087
            ],
            "min" : [
                -0.07306388020515442,
                -1,
                -3.506620407104492
            ],
            "type" : "VEC3"
        },
        {
            "bufferView" : 6,
            "componentType" : 5126,
            "count" : 52,
            "type" : "VEC3"
        },
        {
            "bufferView" : 7,
            "componentType" : 5126,
            "count" : 52,
            "type" : "VEC2"
        },
        {
            "bufferView" : 8,
            "componentType" : 5123,
            "count" : 90,
            "type" : "SCALAR"
        },
        {
            "bufferView" : 10,
            "componentType" : 5126,
            "count" : 24,
            "max" : [
                1.526936650276184,
                0.04999995231628418,
                3.493379831314087
            ],
            "min" : [
                -1.573063850402832,
                -0.05000004917383194,
                -3.506620168685913
            ],
            "type" : "VEC3"
        },
        {
            "bufferView" : 11,
            "componentType" : 5126,
            "count" : 24,
            "type" : "VEC3"
        },
        {
            "bufferView" : 12,
            "componentType" : 5126,
            "count" : 24,
            "type" : "VEC2"
        },
        {
            "bufferView" : 13,
            "componentType" : 5123,
            "count" : 36,
            "type" : "SCALAR"
        },
        {
            "bufferView" : 15,
            "componentType" : 5126,
            "count" : 24,
            "max" : [
                16.450000762939453,
                0.05000007152557373,
                10
            ],
            "min" : [
                -14.550000190734863,
                -0.05000007152557373,
                -13
            ],
            "type" : "VEC3"
        },
        {
            "bufferView" : 16,
            "componentType" : 5126,
            "count" : 24,
            "type" : "VEC3"
        },
        {
            "bufferView" : 17,
            "componentType" : 5126,
            "count" : 24,
            "type" : "VEC2"
        }
    ],
    "bufferViews" : [
        {
            "buffer" : 0,
            "byteLength" : 1248,
            "byteOffset" : 0
        },
        {
            "buffer" : 0,
            "byteLength" : 1248,
            "byteOffset" : 1248
        },
        {
            "buffer" : 0,
            "byteLength" : 832,
            "byteOffset" : 2496
        },
        {
            "buffer" : 0,
            "byteLength" : 384,
            "byteOffset" : 3328
        },
        {
            "buffer" : 0,
            "byteLength" : 167196,
            "byteOffset" : 3712
        },
        {
            "buffer" : 0,
            "byteLength" : 624,
            "byteOffset" : 170908
        },
        {
            "buffer" : 0,
            "byteLength" : 624,
            "byteOffset" : 171532
        },
        {
            "buffer" : 0,
            "byteLength" : 416,
            "byteOffset" : 172156
        },
        {
            "buffer" : 0,
            "byteLength" : 180,
            "byteOffset" : 172572
        },
        {
            "buffer" : 0,
            "byteLength" : 82662,
            "byteOffset" : 172752
        },
        {
            "buffer" : 0,
            "byteLength" : 288,
            "byteOffset" : 255416
        },
        {
            "buffer" : 0,
            "byteLength" : 288,
            "byteOffset" : 255704
        },
        {
            "buffer" : 0,
            "byteLength" : 192,
            "byteOffset" : 255992
        },
        {
            "buffer" : 0,
            "byteLength" : 72,
            "byteOffset" : 256184
        },
        {
            "buffer" : 0,
            "byteLength" : 90973,
            "byteOffset" : 256256
        },
        {
            "buffer" : 0,
            "byteLength" : 288,
            "byteOffset" : 347232
        },
        {
            "buffer" : 0,
            "byteLength" : 288,
            "byteOffset" : 347520
        },
        {
            "buffer" : 0,
            "byteLength" : 192,
            "byteOffset" : 347808
        }
    ],
    "samplers" : [
        {
            "magFilter" : 9729,
            "minFilter" : 9987
        }
    ],
    "buffers" : [
        {
            "byteLength" : 348000,
            "uri" : "data:application/octet-stream;base64,"
        }
    ]
}
