{
    "asset" : {
        "generator" : "Khronos glTF Blender I/O v1.6.16",
        "version" : "2.0"
    },
    "scene" : 0,
    "scenes" : [
        {
            "name" : "Scene",
            "nodes" : [
                0,
                1,
                2,
                3,
                4,
                5
            ]
        }
    ],
    "nodes" : [
        {
            "mesh" : 0,
            "name" : "C Wall",
            "translation" : [
                0.4499998688697815,
                1.0000001192092896,
                0
            ]
        },
        {
            "name" : "Light",
            "rotation" : [
                0.16907575726509094,
                0.7558803558349609,
                -0.27217137813568115,
                0.570947527885437
            ],
            "translation" : [
                5.076245307922363,
                5.903861999511719,
                -0.5054539442062378
            ]
        },
        {
            "name" : "Camera",
            "rotation" : [
                0.483536034822464,
                0.33687159419059753,
                -0.20870360732078552,
                0.7804827094078064
            ],
            "translation" : [
                8.358891487121582,
                4.958309173583984,
                7.425790786743164
            ]
        },
        {
            "mesh" : 1,
            "name" : "Long Wall",
            "translation" : [
                -1.9500000476837158,
                1,
                0
            ]
        },
        {
            "mesh" : 2,
            "name" : "Floor",
            "translation" : [
                -0.4500000476837158,
                -0.04999999701976776,
                0
            ]
        },
        {
            "mesh" : 3,
            "name" : "Ceiling",
            "translation" : [
                -0.4500000476837158,
                4.050000190734863,
                0
            ]
        }
    ],
    "materials" : [
        {
            "doubleSided" : true,
            "name" : "Material",
            "pbrMetallicRoughness" : {
                "baseColorFactor" : [
                    0.800000011920929,
                    0.800000011920929,
                    0.800000011920929,
                    1
                ],
                "metallicFactor" : 0,
                "roughnessFactor" : 0.4000000059604645
            }
        }
    ],
    "meshes" : [
        {
            "name" : "Cube",
            "primitives" : [
                {
                    "attributes" : {
                        "POSITION" : 0,
                        "NORMAL" : 1,
                        "TEXCOORD_0" : 2
                    },
                    "indices" : 3,
                    "material" : 0
                }
            ]
        },
        {
            "name" : "Cube.001",
            "primitives" : [
                {
                    "attributes" : {
                        "POSITION" : 4,
                        "NORMAL" : 5,
                        "TEXCOORD_0" : 6
                    },
                    "indices" : 7
                }
            ]
        },
        {
            "name" : "Cube.002",
            "primitives" : [
                {
                    "attributes" : {
                        "POSITION" : 8,
                        "NORMAL" : 9,
                        "TEXCOORD_0" : 10
                    },
                    "indices" : 7
                }
            ]
        },
        {
            "name" : "Cube.003",
            "primitives" : [
                {
                    "attributes" : {
                        "POSITION" : 11,
                        "NORMAL" : 12,
                        "TEXCOORD_0" : 13
                    },
                    "indices" : 7
                }
            ]
        }
    ],
    "accessors" : [
        {
            "bufferView" : 0,
            "componentType" : 5126,
            "count" : 100,
            "max" : [
                0.6500001549720764,
                0.9999999403953552,
                1.5000005960464478
            ],
            "min" : [
                -1.4499998092651367,
                -1.0000001192092896,
                -1.4999994039535522
            ],
            "type" : "VEC3"
        },
        {
            "bufferView" : 1,
            "componentType" : 5126,
            "count" : 100,
            "type" : "VEC3"
        },
        {
            "bufferView" : 2,
            "componentType" : 5126,
            "count" : 100,
            "type" : "VEC2"
        },
        {
            "bufferView" : 3,
            "componentType" : 5123,
            "count" : 192,
            "type" : "SCALAR"
        },
        {
            "bufferView" : 4,
            "componentType" : 5126,
            "count" : 24,
            "max" : [
                0.049999892711639404,
                1,
                3.5
            ],
            "min" : [
                -0.049999892711639404,
                -1,
                -3.5
            ],
            "type" : "VEC3"
        },
        {
            "bufferView" : 5,
            "componentType" : 5126,
            "count" : 24,
            "type" : "VEC3"
        },
        {
            "bufferView" : 6,
            "componentType" : 5126,
            "count" : 24,
            "type" : "VEC2"
        },
        {
            "bufferView" : 7,
            "componentType" : 5123,
            "count" : 36,
            "type" : "SCALAR"
        },
        {
            "bufferView" : 8,
            "componentType" : 5126,
            "count" : 24,
            "max" : [
                1.5499999523162842,
                0.04999999701976776,
                3.500000238418579
            ],
            "min" : [
                -1.5499999523162842,
                -0.04999999701976776,
                -3.5
            ],
            "type" : "VEC3"
        },
        {
            "bufferView" : 9,
            "componentType" : 5126,
            "count" : 24,
            "type" : "VEC3"
        },
        {
            "bufferView" : 10,
            "componentType" : 5126,
            "count" : 24,
            "type" : "VEC2"
        },
        {
            "bufferView" : 11,
            "componentType" : 5126,
            "count" : 24,
            "max" : [
                4.449999809265137,
                0.05000007152557373,
                5
            ],
            "min" : [
                -3.549999952316284,
                -0.05000007152557373,
                -5
            ],
            "type" : "VEC3"
        },
        {
            "bufferView" : 12,
            "componentType" : 5126,
            "count" : 24,
            "type" : "VEC3"
        },
        {
            "bufferView" : 13,
            "componentType" : 5126,
            "count" : 24,
            "type" : "VEC2"
        }
    ],
    "bufferViews" : [
        {
            "buffer" : 0,
            "byteLength" : 1200,
            "byteOffset" : 0
        },
        {
            "buffer" : 0,
            "byteLength" : 1200,
            "byteOffset" : 1200
        },
        {
            "buffer" : 0,
            "byteLength" : 800,
            "byteOffset" : 2400
        },
        {
            "buffer" : 0,
            "byteLength" : 384,
            "byteOffset" : 3200
        },
        {
            "buffer" : 0,
            "byteLength" : 288,
            "byteOffset" : 3584
        },
        {
            "buffer" : 0,
            "byteLength" : 288,
            "byteOffset" : 3872
        },
        {
            "buffer" : 0,
            "byteLength" : 192,
            "byteOffset" : 4160
        },
        {
            "buffer" : 0,
            "byteLength" : 72,
            "byteOffset" : 4352
        },
        {
            "buffer" : 0,
            "byteLength" : 288,
            "byteOffset" : 4424
        },
        {
            "buffer" : 0,
            "byteLength" : 288,
            "byteOffset" : 4712
        },
        {
            "buffer" : 0,
            "byteLength" : 192,
            "byteOffset" : 5000
        },
        {
            "buffer" : 0,
            "byteLength" : 288,
            "byteOffset" : 5192
        },
        {
            "buffer" : 0,
            "byteLength" : 288,
            "byteOffset" : 5480
        },
        {
            "buffer" : 0,
            "byteLength" : 192,
            "byteOffset" : 5768
        }
    ],
    "buffers" : [
        {
            "byteLength" : 5960,
            "uri" : "data:application/octet-stream;base64,"
        }
    ]
}
