{
    "asset" : {
        "generator" : "Khronos glTF Blender I/O v1.6.16",
        "version" : "2.0"
    },
    "scene" : 0,
    "scenes" : [
        {
            "name" : "Scene",
            "nodes" : [
                0,
                1,
                2,
                3,
                4,
                5,
                6,
                7
            ]
        }
    ],
    "nodes" : [
        {
            "mesh" : 0,
            "name" : "C Wall",
            "rotation" : [
                0,
                0.7071067690849304,
                0,
                0.7071068286895752
            ],
            "translation" : [
                0.006619751453399658,
                1.0000001192092896,
                -0.3730636537075043
            ]
        },
        {
            "name" : "Light",
            "rotation" : [
                0.16907575726509094,
                0.7558803558349609,
                -0.27217137813568115,
                0.570947527885437
            ],
            "translation" : [
                5.076245307922363,
                5.903861999511719,
                -0.5054539442062378
            ]
        },
        {
            "name" : "Camera",
            "rotation" : [
                0.1943359225988388,
                0.7900887727737427,
                -0.48948732018470764,
                0.313680499792099
            ],
            "translation" : [
                7.432412147521973,
                4.958309173583984,
                -8.28195571899414
            ]
        },
        {
            "mesh" : 1,
            "name" : "Long Wall",
            "rotation" : [
                0,
                0.7071067690849304,
                0,
                0.7071068286895752
            ],
            "translation" : [
                0.006620228290557861,
                1,
                2.0269365310668945
            ]
        },
        {
            "mesh" : 2,
            "name" : "Floor",
            "rotation" : [
                0,
                0.7071067690849304,
                0,
                0.7071068286895752
            ],
            "translation" : [
                0.0066201090812683105,
                -0.04999995231628418,
                0.526936411857605
            ]
        },
        {
            "mesh" : 3,
            "name" : "Ceiling",
            "rotation" : [
                0,
                0.7071067690849304,
                0,
                0.7071068286895752
            ],
            "translation" : [
                0.006620347499847412,
                4.050000190734863,
                0.1269364356994629
            ]
        },
        {
            "mesh" : 4,
            "name" : "Far Wall",
            "translation" : [
                -2.8453493118286133,
                1.10272216796875,
                -2.595350980758667
            ]
        },
        {
            "mesh" : 5,
            "name" : "Crane",
            "scale" : [
                0.10000002384185791,
                0.10000002384185791,
                0.10000002384185791
            ],
            "translation" : [
                -3.39910888671875,
                3.9027223587036133,
                -2.054187059402466
            ]
        }
    ],
    "materials" : [
        {
            "doubleSided" : true,
            "name" : "Wall",
            "pbrMetallicRoughness" : {
                "baseColorTexture" : {
                    "index" : 0
                },
                "metallicFactor" : 0,
                "roughnessFactor" : 0.4000000059604645
            }
        },
        {
            "doubleSided" : true,
            "name" : "Floor.001",
            "pbrMetallicRoughness" : {
                "baseColorTexture" : {
                    "index" : 1
                },
                "metallicFactor" : 0,
                "roughnessFactor" : 0.5
            }
        },
        {
            "doubleSided" : true,
            "name" : "Floor",
            "pbrMetallicRoughness" : {
                "baseColorTexture" : {
                    "index" : 2
                },
                "metallicFactor" : 0,
                "roughnessFactor" : 0.5
            }
        },
        {
            "doubleSided" : true,
            "name" : "Rusted-Metal",
            "pbrMetallicRoughness" : {
                "baseColorTexture" : {
                    "index" : 3
                },
                "metallicFactor" : 0,
                "roughnessFactor" : 0.5
            }
        }
    ],
    "meshes" : [
        {
            "name" : "Cube",
            "primitives" : [
                {
                    "attributes" : {
                        "POSITION" : 0,
                        "NORMAL" : 1,
                        "TEXCOORD_0" : 2
                    },
                    "indices" : 3,
                    "material" : 0
                }
            ]
        },
        {
            "name" : "Cube.001",
            "primitives" : [
                {
                    "attributes" : {
                        "POSITION" : 4,
                        "NORMAL" : 5,
                        "TEXCOORD_0" : 6
                    },
                    "indices" : 7,
                    "material" : 1
                }
            ]
        },
        {
            "name" : "Cube.002",
            "primitives" : [
                {
                    "attributes" : {
                        "POSITION" : 8,
                        "NORMAL" : 9,
                        "TEXCOORD_0" : 10
                    },
                    "indices" : 11,
                    "material" : 2
                }
            ]
        },
        {
            "name" : "Cube.003",
            "primitives" : [
                {
                    "attributes" : {
                        "POSITION" : 12,
                        "NORMAL" : 13,
                        "TEXCOORD_0" : 14
                    },
                    "indices" : 11
                }
            ]
        },
        {
            "name" : "Cube.004",
            "primitives" : [
                {
                    "attributes" : {
                        "POSITION" : 15,
                        "NORMAL" : 16,
                        "TEXCOORD_0" : 17
                    },
                    "indices" : 11,
                    "material" : 0
                }
            ]
        },
        {
            "name" : "Cube.005",
            "primitives" : [
                {
                    "attributes" : {
                        "POSITION" : 18,
                        "NORMAL" : 19,
                        "TEXCOORD_0" : 20
                    },
                    "indices" : 21,
                    "material" : 3
                }
            ]
        }
    ],
    "textures" : [
        {
            "sampler" : 0,
            "source" : 0
        },
        {
            "sampler" : 0,
            "source" : 0
        },
        {
            "sampler" : 0,
            "source" : 1
        },
        {
            "sampler" : 0,
            "source" : 2
        }
    ],
    "images" : [
        {
            "bufferView" : 4,
            "mimeType" : "image/jpeg",
            "name" : "wall"
        },
        {
            "bufferView" : 13,
            "mimeType" : "image/jpeg",
            "name" : "cement"
        },
        {
            "bufferView" : 24,
            "mimeType" : "image/jpeg",
            "name" : "Rusted metal seamless2"
        }
    ],
    "accessors" : [
        {
            "bufferView" : 0,
            "componentType" : 5126,
            "count" : 99,
            "max" : [
                0.6269364356994629,
                1.9999998807907104,
                1.4933804273605347
            ],
            "min" : [
                -1.4730638265609741,
                -1.0000001192092896,
                -1.5066196918487549
            ],
            "type" : "VEC3"
        },
        {
            "bufferView" : 1,
            "componentType" : 5126,
            "count" : 99,
            "type" : "VEC3"
        },
        {
            "bufferView" : 2,
            "componentType" : 5126,
            "count" : 99,
            "type" : "VEC2"
        },
        {
            "bufferView" : 3,
            "componentType" : 5123,
            "count" : 180,
            "type" : "SCALAR"
        },
        {
            "bufferView" : 5,
            "componentType" : 5126,
            "count" : 52,
            "max" : [
                3.0269367694854736,
                2,
                3.493379831314087
            ],
            "min" : [
                -0.07306388020515442,
                -1,
                -3.506620407104492
            ],
            "type" : "VEC3"
        },
        {
            "bufferView" : 6,
            "componentType" : 5126,
            "count" : 52,
            "type" : "VEC3"
        },
        {
            "bufferView" : 7,
            "componentType" : 5126,
            "count" : 52,
            "type" : "VEC2"
        },
        {
            "bufferView" : 8,
            "componentType" : 5123,
            "count" : 90,
            "type" : "SCALAR"
        },
        {
            "bufferView" : 9,
            "componentType" : 5126,
            "count" : 24,
            "max" : [
                3.5269367694854736,
                0.04999995231628418,
                3.493379831314087
            ],
            "min" : [
                -1.573063850402832,
                -0.05000004917383194,
                -3.506620168685913
            ],
            "type" : "VEC3"
        },
        {
            "bufferView" : 10,
            "componentType" : 5126,
            "count" : 24,
            "type" : "VEC3"
        },
        {
            "bufferView" : 11,
            "componentType" : 5126,
            "count" : 24,
            "type" : "VEC2"
        },
        {
            "bufferView" : 12,
            "componentType" : 5123,
            "count" : 36,
            "type" : "SCALAR"
        },
        {
            "bufferView" : 14,
            "componentType" : 5126,
            "count" : 24,
            "max" : [
                16.450000762939453,
                0.05000007152557373,
                10
            ],
            "min" : [
                -14.550000190734863,
                -0.05000007152557373,
                -13
            ],
            "type" : "VEC3"
        },
        {
            "bufferView" : 15,
            "componentType" : 5126,
            "count" : 24,
            "type" : "VEC3"
        },
        {
            "bufferView" : 16,
            "componentType" : 5126,
            "count" : 24,
            "type" : "VEC2"
        },
        {
            "bufferView" : 17,
            "componentType" : 5126,
            "count" : 24,
            "max" : [
                6.345349311828613,
                1.8972779512405396,
                -0.30464911460876465
            ],
            "min" : [
                -0.6546506881713867,
                -1.10272216796875,
                -0.404649019241333
            ],
            "type" : "VEC3"
        },
        {
            "bufferView" : 18,
            "componentType" : 5126,
            "count" : 24,
            "type" : "VEC3"
        },
        {
            "bufferView" : 19,
            "componentType" : 5126,
            "count" : 24,
            "type" : "VEC2"
        },
        {
            "bufferView" : 20,
            "componentType" : 5126,
            "count" : 56,
            "max" : [
                68.99107360839844,
                0.9727762341499329,
                1.5418705940246582
            ],
            "min" : [
                -1.008910894393921,
                -1.027223825454712,
                -0.4581283628940582
            ],
            "type" : "VEC3"
        },
        {
            "bufferView" : 21,
            "componentType" : 5126,
            "count" : 56,
            "type" : "VEC3"
        },
        {
            "bufferView" : 22,
            "componentType" : 5126,
            "count" : 56,
            "type" : "VEC2"
        },
        {
            "bufferView" : 23,
            "componentType" : 5123,
            "count" : 108,
            "type" : "SCALAR"
        }
    ],
    "bufferViews" : [
        {
            "buffer" : 0,
            "byteLength" : 1188,
            "byteOffset" : 0
        },
        {
            "buffer" : 0,
            "byteLength" : 1188,
            "byteOffset" : 1188
        },
        {
            "buffer" : 0,
            "byteLength" : 792,
            "byteOffset" : 2376
        },
        {
            "buffer" : 0,
            "byteLength" : 360,
            "byteOffset" : 3168
        },
        {
            "buffer" : 0,
            "byteLength" : 167196,
            "byteOffset" : 3528
        },
        {
            "buffer" : 0,
            "byteLength" : 624,
            "byteOffset" : 170724
        },
        {
            "buffer" : 0,
            "byteLength" : 624,
            "byteOffset" : 171348
        },
        {
            "buffer" : 0,
            "byteLength" : 416,
            "byteOffset" : 171972
        },
        {
            "buffer" : 0,
            "byteLength" : 180,
            "byteOffset" : 172388
        },
        {
            "buffer" : 0,
            "byteLength" : 288,
            "byteOffset" : 172568
        },
        {
            "buffer" : 0,
            "byteLength" : 288,
            "byteOffset" : 172856
        },
        {
            "buffer" : 0,
            "byteLength" : 192,
            "byteOffset" : 173144
        },
        {
            "buffer" : 0,
            "byteLength" : 72,
            "byteOffset" : 173336
        },
        {
            "buffer" : 0,
            "byteLength" : 90973,
            "byteOffset" : 173408
        },
        {
            "buffer" : 0,
            "byteLength" : 288,
            "byteOffset" : 264384
        },
        {
            "buffer" : 0,
            "byteLength" : 288,
            "byteOffset" : 264672
        },
        {
            "buffer" : 0,
            "byteLength" : 192,
            "byteOffset" : 264960
        },
        {
            "buffer" : 0,
            "byteLength" : 288,
            "byteOffset" : 265152
        },
        {
            "buffer" : 0,
            "byteLength" : 288,
            "byteOffset" : 265440
        },
        {
            "buffer" : 0,
            "byteLength" : 192,
            "byteOffset" : 265728
        },
        {
            "buffer" : 0,
            "byteLength" : 672,
            "byteOffset" : 265920
        },
        {
            "buffer" : 0,
            "byteLength" : 672,
            "byteOffset" : 266592
        },
        {
            "buffer" : 0,
            "byteLength" : 448,
            "byteOffset" : 267264
        },
        {
            "buffer" : 0,
            "byteLength" : 216,
            "byteOffset" : 267712
        },
        {
            "buffer" : 0,
            "byteLength" : 1063547,
            "byteOffset" : 267928
        }
    ],
    "samplers" : [
        {
            "magFilter" : 9729,
            "minFilter" : 9987
        }
    ],
    "buffers" : [
        {
            "byteLength" : 1331476,
            "uri" : "data:application/octet-stream;base64,"
        }
    ]
}
